<svg version="1.1" width="100" height="100" xmlns="http://www.w3.org/2000/svg" xmlns:xlink="http://www.w3.org/1999/xlink" viewBox="0 0 226 226"><g fill="none" fill-rule="nonzero" stroke="none" stroke-width="1" stroke-linecap="butt" stroke-linejoin="miter" stroke-miterlimit="10" stroke-dasharray="" stroke-dashoffset="0" font-family="none" font-weight="none" font-size="none" text-anchor="none" style="mix-blend-mode: normal"><path d="M0,226v-226h226v226z" fill="none"></path><g fill="#daa520"><path d="M36.16,33.9c-7.46167,0 -13.56,6.09833 -13.56,13.56v99.44c0,7.46167 6.09833,13.56 13.56,13.56h51.98v6.78c0,5.01805 -4.02195,9.04 -9.04,9.04h-2.98832c-4.08249,0 -7.90909,2.93207 -8.28078,7.20816c-0.39983,4.62617 3.30366,8.61184 7.8791,8.61184h74.58c4.57544,0 8.28211,-3.98505 7.8791,-8.61184c-0.37169,-4.2761 -4.19973,-7.20816 -8.28078,-7.20816h-2.98832c-5.01805,0 -9.04,-4.02195 -9.04,-9.04v-6.78h51.98c7.46167,0 13.56,-6.09833 13.56,-13.56v-99.44c0,-7.46167 -6.09833,-13.56 -13.56,-13.56zM36.16,38.42h153.68c5.01805,0 9.04,4.02195 9.04,9.04v79.1h-171.76v-79.1c0,-5.01805 4.02195,-9.04 9.04,-9.04zM109.61,42.94c-0.40752,-0.00576 -0.78657,0.20834 -0.99201,0.56034c-0.20544,0.35199 -0.20544,0.78734 0,1.13933c0.20544,0.35199 0.58449,0.5661 0.99201,0.56034h6.78c0.40752,0.00576 0.78657,-0.20834 0.99201,-0.56034c0.20544,-0.35199 0.20544,-0.78734 0,-1.13933c-0.20544,-0.35199 -0.58449,-0.5661 -0.99201,-0.56034zM32.77,49.72c-0.62406,0.00006 -1.12994,0.50594 -1.13,1.13v42.94c-0.00576,0.40752 0.20834,0.78657 0.56034,0.99201c0.35199,0.20544 0.78734,0.20544 1.13933,0c0.35199,-0.20544 0.5661,-0.58449 0.56034,-0.99201v-41.81h154.81c0.40752,0.00576 0.78657,-0.20834 0.99201,-0.56034c0.20544,-0.35199 0.20544,-0.78734 0,-1.13933c-0.20544,-0.35199 -0.58449,-0.5661 -0.99201,-0.56034zM193.21234,58.74234c-0.2997,0.00468 -0.58526,0.12822 -0.79387,0.34345c-0.20861,0.21523 -0.32317,0.50451 -0.31848,0.80421v59.89h-158.2v-3.39c0.00576,-0.40752 -0.20834,-0.78657 -0.56034,-0.99201c-0.35199,-0.20544 -0.78734,-0.20544 -1.13933,0c-0.35199,0.20544 -0.5661,0.58449 -0.56034,0.99201v4.52c0.00006,0.62406 0.50594,1.12994 1.13,1.13h160.46c0.62406,-0.00006 1.12994,-0.50594 1.13,-1.13v-61.02c0.00479,-0.30582 -0.11459,-0.60052 -0.33086,-0.81679c-0.21627,-0.21627 -0.51097,-0.33565 -0.81679,-0.33086zM111.89207,58.76c-0.56592,-0.01096 -1.05266,0.39843 -1.13883,0.95785c0,0 -0.27502,1.84037 -1.91129,3.77402c-1.63627,1.93366 -4.57315,3.92852 -10.29801,3.92852c-2.39909,0 -4.03474,-0.31705 -5.04969,-0.61797c-1.01495,-0.30092 -1.31981,-0.52527 -1.31981,-0.52527c-0.34676,-0.23107 -0.79254,-0.25258 -1.15993,-0.05596c-0.36739,0.19662 -0.59678,0.57946 -0.59687,0.99615v27.32305c-0.00134,2.67484 1.46773,5.11478 3.47828,7.27437c2.01055,2.1596 4.61721,4.08518 7.20816,5.72063c5.18191,3.27089 10.33773,5.38074 10.33773,5.38074c0.27439,0.11233 0.58194,0.11233 0.85633,0c0,0 5.1553,-2.10988 10.33773,-5.38074c2.59122,-1.63543 5.20142,-3.5611 7.21258,-5.72063c2.01116,-2.15952 3.47828,-4.59962 3.47828,-7.27437v-27.32305c-0.00009,-0.4167 -0.22947,-0.79953 -0.59687,-0.99615c-0.36739,-0.19662 -0.81317,-0.17511 -1.15993,0.05596c0,0 -0.30447,0.22433 -1.31981,0.52527c-1.01533,0.30095 -2.65177,0.61797 -5.04969,0.61797c-5.72604,0 -8.66648,-1.99495 -10.30242,-3.92852c-1.63594,-1.93357 -1.90687,-3.77402 -1.90687,-3.77402c-0.08391,-0.54451 -0.54823,-0.94916 -1.0991,-0.95785zM113,64.65277c0.08446,0.10762 0.08562,0.19269 0.17656,0.30016c2.02865,2.39772 5.75387,4.72746 12.02391,4.72746c2.59894,0 4.46021,-0.34492 5.69414,-0.71066c0.1097,-0.03252 0.07106,-0.03724 0.17215,-0.07062v25.64129c0,1.82378 -1.0735,3.80102 -2.87356,5.73387c-1.80005,1.93284 -4.27195,3.77805 -6.76234,5.34984c-4.20363,2.65309 -7.21539,3.86593 -8.43086,4.38758v-19.61168h7.91c0.40752,0.00576 0.78657,-0.20834 0.99201,-0.56034c0.20544,-0.35199 0.20544,-0.78734 0,-1.13933c-0.20544,-0.35199 -0.58449,-0.5661 -0.99201,-0.56034h-7.91zM110.74,64.6616v23.4784h-14.69c-0.40752,-0.00576 -0.78657,0.20834 -0.99201,0.56034c-0.20544,0.35199 -0.20544,0.78734 0,1.13933c0.20544,0.35199 0.58449,0.5661 0.99201,0.56034h14.69v19.61168c-1.21546,-0.52164 -4.22774,-1.73452 -8.43086,-4.38758c-2.49009,-1.57178 -4.96296,-3.41707 -6.76234,-5.34984c-1.79938,-1.93277 -2.87006,-3.90577 -2.86914,-5.72945c0,-0.00147 0,-0.00294 0,-0.00441v-25.64129c0.10107,0.0334 0.06247,0.0381 0.17215,0.07062c1.23375,0.36579 3.09411,0.71066 5.69414,0.71066c6.26896,0 9.99502,-2.32982 12.02391,-4.72746c0.08837,-0.10443 0.08988,-0.18674 0.17215,-0.29133zM125.43,88.14c-0.40752,-0.00576 -0.78657,0.20834 -0.99201,0.56034c-0.20544,0.35199 -0.20544,0.78734 0,1.13933c0.20544,0.35199 0.58449,0.5661 0.99201,0.56034h2.26c0.40752,0.00576 0.78657,-0.20834 0.99201,-0.56034c0.20544,-0.35199 0.20544,-0.78734 0,-1.13933c-0.20544,-0.35199 -0.58449,-0.5661 -0.99201,-0.56034zM32.75234,101.68234c-0.2997,0.00468 -0.58526,0.12822 -0.79387,0.34345c-0.20861,0.21523 -0.32317,0.50451 -0.31848,0.80421v6.78c-0.00576,0.40752 0.20834,0.78657 0.56034,0.99201c0.35199,0.20544 0.78734,0.20544 1.13933,0c0.35199,-0.20544 0.5661,-0.58449 0.56034,-0.99201v-6.78c0.00479,-0.30582 -0.11459,-0.60052 -0.33086,-0.81679c-0.21627,-0.21627 -0.51097,-0.33565 -0.81679,-0.33086zM27.12,128.82h171.76v18.08c0,5.01805 -4.02195,9.04 -9.04,9.04h-54.24h-45.2h-54.24c-5.01805,0 -9.04,-4.02195 -9.04,-9.04zM113,133.34c-2.16583,0 -3.93182,0.85287 -5.08059,2.14523c-1.14876,1.29236 -1.69941,2.97115 -1.69941,4.63477c0,1.66361 0.55065,3.3424 1.69941,4.63477c1.14876,1.29236 2.91475,2.14523 5.08059,2.14523c2.16583,0 3.93182,-0.85287 5.08059,-2.14523c1.14876,-1.29236 1.69941,-2.97115 1.69941,-4.63477c0,-1.66361 -0.55065,-3.3424 -1.69941,-4.63477c-1.14876,-1.29236 -2.91475,-2.14523 -5.08059,-2.14523zM113,135.6c1.60083,0 2.65985,0.55963 3.39441,1.38602c0.73457,0.82639 1.12559,1.9726 1.12559,3.13398c0,1.16139 -0.39102,2.3076 -1.12559,3.13398c-0.73457,0.82639 -1.79358,1.38602 -3.39441,1.38602c-1.60083,0 -2.65985,-0.55963 -3.39441,-1.38602c-0.73457,-0.82639 -1.12559,-1.9726 -1.12559,-3.13398c0,-1.16139 0.39102,-2.3076 1.12559,-3.13398c0.73457,-0.82639 1.79358,-1.38602 3.39441,-1.38602zM92.66,160.46h40.68v6.78c0,7.46167 6.09833,13.56 13.56,13.56h2.98832c1.91699,0 3.63033,1.37716 3.77844,3.08102c0.18007,2.06733 -1.3756,3.69898 -3.37676,3.69898h-74.58c-2.00116,0 -3.55549,-1.63544 -3.37676,-3.7034c0.1504,-1.70204 1.85985,-3.0766 3.77844,-3.0766h33.49391c0.40752,0.00576 0.78657,-0.20834 0.99201,-0.56034c0.20544,-0.35199 0.20544,-0.78734 0,-1.13933c-0.20544,-0.35199 -0.58449,-0.5661 -0.99201,-0.56034h-23.03699c3.66352,-2.43356 6.09141,-6.59406 6.09141,-11.3zM116.39,178.54c-0.40752,-0.00576 -0.78657,0.20834 -0.99201,0.56034c-0.20544,0.35199 -0.20544,0.78734 0,1.13933c0.20544,0.35199 0.58449,0.5661 0.99201,0.56034h4.52c0.40752,0.00576 0.78657,-0.20834 0.99201,-0.56034c0.20544,-0.35199 0.20544,-0.78734 0,-1.13933c-0.20544,-0.35199 -0.58449,-0.5661 -0.99201,-0.56034z"></path></g></g></svg>