<?xml version="1.0" encoding="UTF-8"?>
<svg xmlns="http://www.w3.org/2000/svg" xmlns:xlink="http://www.w3.org/1999/xlink" viewBox="0 0 100 100" width="100px" height="100px">
<g id="surface289461570">
<path style="fill-rule:nonzero;fill:rgb(90.196079%,49.411765%,13.333334%);fill-opacity:1;stroke-width:6;stroke-linecap:butt;stroke-linejoin:round;stroke:rgb(80.000001%,80.000001%,80.000001%);stroke-opacity:1;stroke-miterlimit:10;" d="M 64.563987 26.504981 C 71.192319 28.278564 78.57877 33.383701 85.999998 40.665825 C 93.421226 33.383701 100.807678 28.278564 107.43601 26.504981 C 111.956908 25.294772 116.025716 25.635578 119.378135 27.589997 C 123.648645 30.079968 126.07602 34.955583 126.875871 41.277885 C 127.647901 47.40544 126.86196 55.000549 124.782347 63.423329 C 133.12862 65.802017 140.104714 68.897093 145.015104 72.625095 C 150.085465 76.478292 153.083168 81.033966 153.083168 85.999998 C 153.083168 90.966031 150.085465 95.521705 145.015104 99.374901 C 140.104714 103.102903 133.12862 106.204934 124.782347 108.576667 C 126.86196 117.006403 127.640946 124.601511 126.868916 130.722112 C 126.069064 137.044413 123.648645 141.920028 119.378135 144.409999 C 117.333298 145.606299 115.003297 146.204448 112.485505 146.204448 C 110.878847 146.204448 109.195682 145.96797 107.43601 145.495015 C 100.807678 143.721432 93.421226 138.62325 85.999998 131.341127 C 78.57877 138.62325 71.192319 143.721432 64.563987 145.495015 C 62.804314 145.96797 61.121149 146.204448 59.514491 146.204448 C 56.989744 146.211403 54.666698 145.606299 52.621861 144.409999 C 48.351351 141.920028 45.923977 137.044413 45.124126 130.722112 C 44.352095 124.601511 45.138036 117.006403 47.217649 108.576667 C 38.871376 106.204934 31.895283 103.102903 26.984892 99.374901 C 21.914531 95.521705 18.916828 90.966031 18.916828 85.999998 C 18.916828 81.033966 21.914531 76.478292 26.984892 72.625095 C 31.895283 68.897093 38.871376 65.802017 47.217649 63.423329 C 45.138036 55.000549 44.352095 47.398485 45.124126 41.277885 C 45.923977 34.955583 48.351351 30.079968 52.621861 27.589997 C 54.298071 26.60931 56.155117 26.038981 58.151267 25.858145 C 58.652043 25.816414 59.16673 25.795548 59.681417 25.802503 C 61.239388 25.816414 62.866911 26.052892 64.563987 26.504981 Z M 58.318192 27.562176 C 56.551565 27.722146 54.944907 28.222923 53.491264 29.078416 C 49.818904 31.220626 47.593231 35.491135 46.835112 41.493497 C 46.076992 47.502813 46.821201 55.160519 49.026008 63.771091 C 49.137292 64.230136 48.872993 64.689181 48.420903 64.814375 C 39.852063 67.179152 32.841194 70.343781 28.028176 73.995275 C 23.215159 77.653725 20.641724 81.722533 20.641724 85.999998 C 20.641724 90.277463 23.215159 94.346271 28.028176 98.004721 C 32.841194 101.656215 39.852063 104.820844 48.420903 107.185621 C 48.872993 107.310816 49.144247 107.776816 49.026008 108.228906 C 46.821201 116.839477 46.076992 124.504138 46.835112 130.5065 C 47.593231 136.515816 49.818904 140.779371 53.491264 142.921581 C 55.264847 143.964865 57.260998 144.486507 59.514491 144.486507 C 60.947268 144.486507 62.484374 144.270895 64.118852 143.832716 C 70.441154 142.142595 77.890203 137.0931 85.394893 129.609275 C 85.728744 129.275424 86.271252 129.275424 86.605103 129.609275 C 94.109794 137.0931 101.558842 142.142595 107.881144 143.832716 C 109.515623 144.270895 111.052728 144.486507 112.485505 144.486507 C 114.738999 144.486507 116.735149 143.964865 118.508732 142.921581 C 122.181092 140.779371 124.406765 136.515816 125.164885 130.5065 C 125.923005 124.504138 125.178795 116.832522 122.973988 108.228906 C 122.862704 107.769861 123.127003 107.310816 123.579093 107.185621 C 132.147933 104.820844 139.158803 101.656215 143.97182 98.004721 C 148.784838 94.346271 151.358272 90.277463 151.358272 85.999998 C 151.358272 81.722533 148.784838 77.653725 143.97182 73.995275 C 139.158803 70.343781 132.147933 67.179152 123.579093 64.814375 C 123.127003 64.689181 122.862704 64.230136 122.973988 63.771091 C 125.178795 55.167474 125.923005 47.502813 125.164885 41.493497 C 124.406765 35.491135 122.181092 31.220626 118.508732 29.078416 C 115.601447 27.374385 112.082102 27.047489 107.881144 28.167281 C 101.558842 29.857401 94.109794 34.906896 86.605103 42.390721 C 86.271252 42.724572 85.728744 42.724572 85.394893 42.390721 C 77.890203 34.906896 70.441154 29.864356 64.118852 28.167281 C 62.540015 27.749967 61.065507 27.5274 59.674462 27.513489 C 59.215417 27.506534 58.763327 27.5274 58.318192 27.562176 Z M 63.228583 31.491879 C 69.217034 33.098537 76.060978 37.91851 83.030116 44.901558 C 83.357012 45.228454 83.370922 45.757051 83.057937 46.090902 C 79.19083 50.333591 75.351545 55.181385 71.658319 60.502134 C 71.512259 60.710791 71.282737 60.84294 71.032348 60.870761 C 64.737867 61.434134 58.818969 62.352224 53.400846 63.569389 C 52.948757 63.673718 52.496667 63.395508 52.378428 62.950374 C 50.382278 55.146609 49.645024 48.358306 50.097113 43.051468 C 50.549203 37.744629 52.190637 33.814925 55.223116 32.048298 C 56.468102 31.317999 57.9287 30.963282 59.535357 30.963282 C 60.689925 30.963282 61.921 31.144118 63.228583 31.491879 Z M 116.77688 32.048298 C 119.809359 33.814925 121.450793 37.744629 121.902883 43.051468 C 122.354973 48.358306 121.617719 55.146609 119.621568 62.950374 C 119.503329 63.395508 119.05124 63.673718 118.59915 63.569389 C 113.181028 62.352224 107.262129 61.434134 100.967648 60.870761 C 100.71726 60.84294 100.487737 60.710791 100.341677 60.502134 C 96.648452 55.174429 92.809166 50.333591 88.942059 46.090902 C 88.636029 45.757051 88.642985 45.235409 88.96988 44.908514 C 95.939018 37.91851 102.782962 33.098537 108.771413 31.491879 C 110.078996 31.144118 111.303116 30.963282 112.464639 30.963282 C 114.064341 30.963282 115.531895 31.317999 116.77688 32.048298 Z M 56.085564 33.529761 C 53.80425 34.865165 52.239323 38.175853 51.815055 43.197528 C 51.397741 48.038366 52.093264 54.437175 53.901623 61.76103 C 59.055446 60.634283 64.591808 59.76488 70.489841 59.215417 C 73.97441 54.221563 77.591128 49.686755 81.235667 45.631857 C 74.593425 39.086988 68.090287 34.573045 62.783448 33.147224 C 61.594105 32.834238 60.509089 32.681223 59.535357 32.681223 C 58.179088 32.681223 57.045386 32.966388 56.085564 33.529761 Z M 109.216548 33.147224 C 103.909709 34.573045 97.406571 39.086988 90.764329 45.631857 C 94.408868 49.686755 98.025587 54.221563 101.510156 59.215417 C 107.408189 59.76488 112.94455 60.641238 118.098374 61.76103 C 119.906733 54.444131 120.602255 48.045321 120.184942 43.204483 C 119.760673 38.175853 118.195747 34.865165 115.914432 33.529761 C 115.907477 33.529761 115.907477 33.529761 115.907477 33.529761 C 114.954611 32.973343 113.813953 32.681223 112.464639 32.681223 C 111.490907 32.681223 110.405892 32.834238 109.216548 33.147224 Z M 86.639879 48.692157 C 89.470657 51.82201 92.301434 55.292668 95.06266 59.041536 C 95.257406 59.305835 95.285227 59.667506 95.125257 59.959626 C 94.972242 60.251746 94.659257 60.425626 94.325406 60.411716 C 91.598956 60.279567 88.823821 60.203059 85.999998 60.203059 C 83.176176 60.203059 80.40104 60.279567 77.674591 60.411716 C 77.347695 60.425626 77.03471 60.251746 76.87474 59.959626 C 76.721725 59.667506 76.74259 59.305835 76.937337 59.041536 C 79.698562 55.292668 82.52934 51.82201 85.360117 48.692157 C 85.513132 48.525232 85.721789 48.420903 85.944356 48.406993 C 86.208655 48.393083 86.459043 48.497411 86.639879 48.692157 Z M 79.475995 58.645088 C 81.632115 58.561625 83.781281 58.478163 85.999998 58.478163 C 88.218716 58.478163 90.367881 58.561625 92.524002 58.645088 C 90.367881 55.8004 88.190895 53.094816 85.999998 50.625711 C 83.809101 53.094816 81.632115 55.8004 79.475995 58.645088 Z M 98.206423 64.091031 C 98.470721 64.111897 98.714154 64.251001 98.860214 64.466614 C 101.058066 67.742526 103.207231 71.164498 105.245113 74.739485 C 107.352547 78.432711 109.244369 82.070295 110.941444 85.631371 C 111.052728 85.867849 111.052728 86.139103 110.941444 86.37558 C 109.244369 89.929702 107.352547 93.567286 105.245113 97.260512 C 103.207231 100.835499 101.058066 104.257471 98.860214 107.533383 C 98.714154 107.748995 98.470721 107.888099 98.213378 107.908965 C 94.30454 108.201085 90.228777 108.361055 85.999998 108.361055 C 81.77122 108.361055 77.695456 108.201085 73.793574 107.908965 C 73.529275 107.888099 73.285842 107.748995 73.139782 107.533383 C 70.94193 104.257471 68.79972 100.835499 66.754883 97.260512 C 64.647449 93.567286 62.755628 89.929702 61.065507 86.37558 C 60.954224 86.139103 60.954224 85.867849 61.065507 85.631371 C 62.755628 82.070295 64.647449 78.439666 66.754883 74.739485 C 68.79972 71.164498 70.94193 67.742526 73.146738 64.466614 C 73.292797 64.251001 73.529275 64.111897 73.793574 64.091031 C 77.695456 63.798912 81.77122 63.638941 85.999998 63.638941 C 90.228777 63.638941 94.297585 63.798912 98.206423 64.091031 Z M 68.034645 65.183002 C 68.180705 65.454256 68.166795 65.781152 67.999869 66.038495 C 66.553182 68.312854 65.141271 70.6359 63.771091 73.035454 C 62.380045 75.462828 61.086373 77.890203 59.855298 80.296712 C 59.702283 80.595786 59.396253 80.776622 59.062402 80.762712 C 58.728551 80.748801 58.429476 80.5471 58.297327 80.24107 C 56.495923 75.977515 55.007504 71.880886 53.80425 67.972048 C 53.734697 67.742526 53.762518 67.499093 53.880757 67.290436 C 54.005951 67.081779 54.207653 66.935719 54.437175 66.880077 C 58.380789 66.003719 62.637389 65.27342 67.172197 64.730912 C 67.220884 64.723957 67.262615 64.717002 67.311302 64.723957 C 67.617332 64.730912 67.895541 64.911748 68.034645 65.183002 Z M 104.827799 64.730912 C 109.362608 65.27342 113.619207 66.003719 117.562821 66.880077 C 117.799299 66.935719 118.001 67.081779 118.119239 67.290436 C 118.237478 67.499093 118.265299 67.749481 118.195747 67.979003 C 116.992492 71.880886 115.504074 75.98447 113.70267 80.24107 C 113.57052 80.5471 113.271446 80.755757 112.937595 80.762712 C 112.603744 80.776622 112.290758 80.595786 112.144699 80.296712 C 110.913623 77.883248 109.619951 75.469784 108.228906 73.042409 C 108.228906 73.035454 108.228906 73.035454 108.228906 73.035454 C 106.865681 70.6359 105.439859 68.31981 104.000127 66.04545 C 103.840157 65.788107 103.819291 65.468166 103.951441 65.196912 C 104.090545 64.932614 104.354844 64.751778 104.653919 64.723957 C 104.681739 64.723957 104.70956 64.723957 104.737381 64.723957 C 104.765202 64.723957 104.799978 64.723957 104.827799 64.730912 Z M 74.343037 65.788107 C 72.249513 68.924914 70.197721 72.179961 68.250257 75.594978 C 66.233241 79.121278 64.438793 82.598892 62.811269 85.999998 C 64.438793 89.40806 66.233241 92.878718 68.250257 96.405019 C 70.190766 99.81308 72.242558 103.075082 74.343037 106.21189 C 78.084949 106.483143 81.959011 106.643114 85.999998 106.643114 C 90.040985 106.643114 93.915047 106.483143 97.65696 106.21189 C 99.757438 103.075082 101.80923 99.81308 103.749739 96.405019 C 105.766755 92.878718 107.561204 89.40806 109.188727 85.999998 C 107.561204 82.591937 105.766755 79.121278 103.749739 75.594978 C 101.802275 72.186916 99.757438 68.924914 97.65696 65.788107 C 93.915047 65.516853 90.040985 65.356883 85.999998 65.356883 C 81.965966 65.356883 78.084949 65.516853 74.343037 65.788107 Z M 55.786489 68.396317 C 56.746311 71.414886 57.921744 74.579514 59.236282 77.813695 C 60.216969 75.942739 61.197657 74.071783 62.275717 72.179961 C 63.346822 70.309005 64.452703 68.528466 65.565539 66.740973 C 62.143567 67.200018 58.84679 67.73557 55.786489 68.396317 Z M 109.724279 72.186916 C 110.80234 74.071783 111.783027 75.942739 112.756759 77.813695 C 114.071297 74.579514 115.253685 71.414886 116.213507 68.396317 C 113.146251 67.742526 109.856429 67.200018 106.434457 66.740973 C 107.540338 68.528466 108.66013 70.31596 109.724279 72.186916 Z M 50.417054 68.716258 C 52.072398 74.113514 54.249384 79.795935 56.927147 85.638326 C 57.031475 85.867849 57.031475 86.132147 56.927147 86.36167 C 54.249384 92.204061 52.072398 97.886482 50.417054 103.283739 C 50.277949 103.721918 49.818904 103.979261 49.366814 103.861023 C 41.618691 101.725768 35.372896 98.992363 31.011969 95.952929 C 26.651041 92.913494 24.077607 89.526299 24.077607 85.999998 C 24.077607 82.473698 26.651041 79.086502 31.011969 76.047067 C 35.372896 73.007633 41.618691 70.274229 49.366814 68.138974 C 49.436367 68.125063 49.505919 68.111153 49.575471 68.111153 C 49.958009 68.104198 50.30577 68.347631 50.417054 68.716258 Z M 122.633182 68.138974 C 130.381305 70.274229 136.6271 73.007633 140.988028 76.047067 C 145.348955 79.086502 147.922389 82.473698 147.922389 85.999998 C 147.922389 89.526299 145.348955 92.913494 140.988028 95.952929 C 136.6271 98.992363 130.381305 101.725768 122.633182 103.861023 C 122.181092 103.979261 121.722047 103.721918 121.582943 103.283739 C 119.927598 97.886482 117.750612 92.204061 115.072849 86.36167 C 114.968521 86.132147 114.968521 85.867849 115.072849 85.638326 C 117.750612 79.795935 119.927598 74.113514 121.582943 68.716258 C 121.687271 68.368496 122.007211 68.125063 122.375838 68.111153 C 122.459301 68.111153 122.549719 68.118108 122.633182 68.138974 Z M 31.999611 77.458979 C 27.875161 80.331488 25.802503 83.336146 25.802503 85.999998 C 25.802503 88.66385 27.875161 91.668509 31.999611 94.541018 C 35.978001 97.316153 41.855169 99.882632 49.095561 101.948335 C 50.702218 96.829288 52.719234 91.487673 55.223116 85.999998 C 52.719234 80.512324 50.702218 75.170709 49.095561 70.051661 C 41.855169 72.117364 35.978001 74.683843 31.999611 77.458979 Z M 116.77688 85.999998 C 119.280762 91.487673 121.297778 96.829288 122.904436 101.948335 C 130.144828 99.882632 136.021995 97.316153 140.000385 94.541018 C 144.124835 91.668509 146.197493 88.66385 146.197493 85.999998 C 146.197493 83.336146 144.124835 80.331488 140.000385 77.458979 C 136.021995 74.683843 130.144828 72.117364 122.904436 70.051661 C 121.297778 75.170709 119.280762 80.512324 116.77688 85.999998 Z M 99.757438 85.999998 C 99.757438 93.581196 93.581196 99.757438 85.999998 99.757438 C 78.4188 99.757438 72.242558 93.581196 72.242558 85.999998 C 72.242558 78.4188 78.4188 72.242558 85.999998 72.242558 C 93.581196 72.242558 99.757438 78.4188 99.757438 85.999998 Z M 75.67844 85.999998 C 75.67844 91.717195 80.282801 96.321556 85.999998 96.321556 C 91.717195 96.321556 96.321556 91.717195 96.321556 85.999998 C 96.321556 80.282801 91.717195 75.67844 85.999998 75.67844 C 80.282801 75.67844 75.67844 80.282801 75.67844 85.999998 Z M 59.855298 91.71024 C 61.086373 94.116749 62.380045 96.537168 63.764136 98.964542 C 65.134315 101.364096 66.553182 103.687142 67.999869 105.954546 C 68.17375 106.232755 68.180705 106.594427 67.999869 106.872636 C 67.825988 107.1578 67.499093 107.310816 67.172197 107.269084 C 62.630433 106.726576 58.380789 105.996277 54.437175 105.119919 C 54.200698 105.064277 53.998996 104.918217 53.880757 104.70956 C 53.762518 104.500904 53.734697 104.250515 53.80425 104.020993 C 55.007504 100.11911 56.495923 96.015526 58.297327 91.758927 C 58.436431 91.445941 58.742461 91.237285 59.090223 91.237285 C 59.417118 91.237285 59.709238 91.41812 59.855298 91.71024 Z M 113.70267 91.758927 C 115.504074 96.022481 116.992492 100.11911 118.195747 104.020993 C 118.265299 104.250515 118.237478 104.500904 118.119239 104.70956 C 118.001 104.918217 117.799299 105.064277 117.562821 105.119919 C 113.619207 105.996277 109.362608 106.726576 104.827799 107.269084 C 104.493948 107.310816 104.174008 107.1578 103.993172 106.872636 C 103.819291 106.594427 103.819291 106.232755 104.000127 105.954546 C 105.439859 103.680187 106.865681 101.364096 108.228906 98.964542 C 109.619951 96.537168 110.913623 94.116749 112.144699 91.71024 C 112.283803 91.425076 112.568968 91.24424 112.881953 91.237285 C 113.236669 91.223374 113.563565 91.432031 113.70267 91.758927 Z M 55.786489 103.603679 C 58.84679 104.257471 62.143567 104.799978 65.565539 105.259023 C 64.452703 103.47153 63.339867 101.690992 62.275717 99.820035 C 61.197657 97.935169 60.216969 96.057257 59.243238 94.186301 C 57.9287 97.420482 56.746311 100.58511 55.786489 103.603679 Z M 109.724279 99.820035 C 108.66013 101.684036 107.547293 103.47153 106.434457 105.259023 C 109.856429 104.799978 113.153207 104.257471 116.213507 103.603679 C 115.253685 100.58511 114.071297 97.427437 112.756759 94.186301 C 111.783027 96.057257 110.80234 97.935169 109.724279 99.820035 Z M 119.614613 109.049622 C 121.617719 116.853388 122.354973 123.64169 121.902883 128.948529 C 121.450793 134.255367 119.809359 138.185071 116.77688 139.951699 C 114.627715 141.210595 111.89431 141.342744 108.771413 140.508117 C 102.782962 138.901459 95.939018 134.081487 88.96988 127.098438 C 88.642985 126.771542 88.629074 126.242945 88.942059 125.909094 C 92.809166 121.666405 96.648452 116.825567 100.341677 111.497863 C 100.487737 111.289206 100.71726 111.157056 100.967648 111.129235 C 107.262129 110.565862 113.181028 109.647772 118.59915 108.430607 C 118.661747 108.409741 118.731299 108.402786 118.800851 108.402786 C 119.190344 108.409741 119.524195 108.67404 119.614613 109.049622 Z M 53.400846 108.430607 C 58.818969 109.647772 64.737867 110.565862 71.032348 111.129235 C 71.282737 111.157056 71.512259 111.289206 71.658319 111.497863 C 75.351545 116.825567 79.19083 121.67336 83.057937 125.909094 C 83.363967 126.2499 83.357012 126.771542 83.030116 127.098438 C 76.060978 134.081487 69.217034 138.901459 63.228583 140.508117 C 60.105686 141.342744 57.372281 141.210595 55.223116 139.958654 C 55.223116 139.958654 55.223116 139.958654 55.223116 139.951699 C 52.190637 138.185071 50.549203 134.255367 50.097113 128.948529 C 49.645024 123.64169 50.382278 116.853388 52.378428 109.049622 C 52.475801 108.667085 52.830518 108.395831 53.233921 108.409741 C 53.289563 108.409741 53.345205 108.416697 53.400846 108.430607 Z M 101.510156 112.78458 C 98.025587 117.778433 94.408868 122.313241 90.764329 126.368139 C 97.406571 132.913008 103.909709 137.426951 109.216548 138.852773 C 112.061236 139.610892 114.266043 139.430057 115.914432 138.470235 C 118.195747 137.134831 119.760673 133.824143 120.184942 128.802469 C 120.602255 123.954675 119.899777 117.555866 118.098374 110.238966 C 112.94455 111.358758 107.408189 112.235117 101.510156 112.78458 Z M 51.815055 128.802469 C 52.239323 133.824143 53.80425 137.134831 56.085564 138.470235 C 57.733953 139.430057 59.945716 139.603937 62.783448 138.852773 C 68.090287 137.426951 74.58647 132.913008 81.235667 126.375094 C 77.584173 122.313241 73.967454 117.778433 70.489841 112.78458 C 64.591808 112.235117 59.055446 111.365713 53.901623 110.238966 C 52.093264 117.562821 51.397741 123.954675 51.815055 128.802469 Z M 77.674591 111.58828 C 80.40104 111.72043 83.176176 111.796937 85.999998 111.796937 C 88.823821 111.796937 91.598956 111.72043 94.325406 111.58828 C 94.652301 111.57437 94.965287 111.748251 95.125257 112.04037 C 95.278272 112.33249 95.257406 112.694162 95.06266 112.95846 C 92.301434 116.707328 89.470657 120.171031 86.639879 123.307839 C 86.472954 123.488675 86.243431 123.593003 85.999998 123.593003 C 85.756565 123.593003 85.527043 123.488675 85.360117 123.307839 C 82.52934 120.177987 79.698562 116.707328 76.937337 112.95846 C 76.756501 112.701117 76.721725 112.367266 76.853874 112.082102 C 76.992978 111.796937 77.271188 111.609146 77.591128 111.58828 C 77.618949 111.58828 77.64677 111.58828 77.674591 111.58828 Z M 85.999998 121.374286 C 88.190895 118.90518 90.367881 116.199596 92.524002 113.354908 C 90.367881 113.438371 88.218716 113.521834 85.999998 113.521834 C 83.781281 113.521834 81.632115 113.438371 79.475995 113.354908 C 81.632115 116.199596 83.809101 118.90518 85.999998 121.374286 Z M 85.999998 121.374286 " transform="matrix(0.561628,0,0,0.561628,1.7,1.7)"/>
<path style=" stroke:none;fill-rule:nonzero;fill:rgb(90.196079%,49.411765%,13.333334%);fill-opacity:1;" d="M 35.21875 16.191406 C 34.929688 16.1875 34.640625 16.199219 34.359375 16.222656 C 33.238281 16.324219 32.195312 16.644531 31.253906 17.195312 C 28.855469 18.59375 27.492188 21.332031 27.042969 24.882812 C 26.609375 28.320312 27.050781 32.589844 28.21875 37.320312 C 23.53125 38.65625 19.613281 40.394531 16.855469 42.488281 C 14.007812 44.652344 12.324219 47.210938 12.324219 50 C 12.324219 52.789062 14.007812 55.347656 16.855469 57.511719 C 19.613281 59.605469 23.53125 61.347656 28.21875 62.679688 C 27.050781 67.414062 26.609375 71.679688 27.042969 75.117188 C 27.492188 78.667969 28.855469 81.40625 31.253906 82.804688 C 32.402344 83.476562 33.707031 83.816406 35.125 83.8125 C 36.027344 83.8125 36.972656 83.679688 37.960938 83.414062 C 41.683594 82.417969 45.832031 79.554688 50 75.464844 C 54.167969 79.554688 58.316406 82.417969 62.039062 83.414062 C 63.027344 83.679688 63.972656 83.8125 64.875 83.8125 C 66.289062 83.8125 67.597656 83.476562 68.746094 82.804688 C 71.144531 81.40625 72.503906 78.667969 72.953125 75.117188 C 73.386719 71.679688 72.949219 67.414062 71.78125 62.679688 C 76.46875 61.347656 80.386719 59.605469 83.144531 57.511719 C 85.992188 55.347656 87.675781 52.789062 87.675781 50 C 87.675781 47.210938 85.992188 44.652344 83.144531 42.488281 C 80.386719 40.394531 76.46875 38.65625 71.78125 37.320312 C 72.949219 32.589844 73.390625 28.324219 72.957031 24.882812 C 72.507812 21.332031 71.144531 18.59375 68.746094 17.195312 C 66.863281 16.097656 64.578125 15.90625 62.039062 16.585938 C 58.316406 17.582031 54.167969 20.449219 50 24.539062 C 45.832031 20.449219 41.683594 17.582031 37.960938 16.585938 C 37.007812 16.332031 36.09375 16.199219 35.21875 16.191406 Z M 35.214844 17.152344 C 35.996094 17.160156 36.824219 17.285156 37.710938 17.519531 C 41.261719 18.472656 45.445312 21.304688 49.660156 25.507812 C 49.847656 25.695312 50.152344 25.695312 50.339844 25.507812 C 54.554688 21.304688 58.738281 18.46875 62.289062 17.519531 C 64.648438 16.890625 66.625 17.074219 68.257812 18.03125 C 70.320312 19.234375 71.570312 21.632812 71.996094 25.003906 C 72.421875 28.378906 72.003906 32.683594 70.765625 37.515625 C 70.703125 37.773438 70.851562 38.03125 71.105469 38.101562 C 75.917969 39.429688 79.855469 41.207031 82.558594 43.257812 C 85.261719 45.3125 86.707031 47.597656 86.707031 50 C 86.707031 52.402344 85.261719 54.6875 82.558594 56.742188 C 79.855469 58.792969 75.917969 60.570312 71.105469 61.898438 C 70.851562 61.96875 70.703125 62.226562 70.765625 62.484375 C 72.003906 67.316406 72.421875 71.625 71.996094 74.996094 C 71.570312 78.371094 70.320312 80.765625 68.257812 81.96875 C 67.261719 82.554688 66.140625 82.847656 64.875 82.847656 C 64.070312 82.847656 63.207031 82.726562 62.289062 82.480469 C 58.738281 81.53125 54.554688 78.695312 50.339844 74.492188 C 50.152344 74.304688 49.847656 74.304688 49.660156 74.492188 C 45.445312 78.695312 41.261719 81.53125 37.710938 82.480469 C 36.792969 82.726562 35.929688 82.847656 35.125 82.847656 C 33.859375 82.847656 32.738281 82.554688 31.742188 81.96875 C 29.679688 80.765625 28.429688 78.371094 28.003906 74.996094 C 27.578125 71.625 27.996094 67.320312 29.234375 62.484375 C 29.300781 62.230469 29.148438 61.96875 28.894531 61.898438 C 24.082031 60.570312 20.144531 58.792969 17.441406 56.742188 C 14.738281 54.6875 13.292969 52.402344 13.292969 50 C 13.292969 47.597656 14.738281 45.3125 17.441406 43.257812 C 20.144531 41.207031 24.082031 39.429688 28.894531 38.101562 C 29.148438 38.03125 29.296875 37.773438 29.234375 37.515625 C 27.996094 32.679688 27.578125 28.378906 28.003906 25.003906 C 28.429688 21.632812 29.679688 19.234375 31.742188 18.03125 C 32.558594 17.550781 33.460938 17.269531 34.453125 17.179688 C 34.703125 17.160156 34.957031 17.148438 35.214844 17.152344 Z M 35.136719 19.089844 C 34.234375 19.089844 33.414062 19.289062 32.714844 19.699219 C 31.011719 20.691406 30.089844 22.898438 29.835938 25.878906 C 29.582031 28.859375 29.996094 32.671875 31.117188 37.054688 C 31.183594 37.304688 31.4375 37.460938 31.691406 37.402344 C 34.734375 36.71875 38.058594 36.203125 41.59375 35.886719 C 41.734375 35.871094 41.863281 35.796875 41.945312 35.679688 C 44.019531 32.691406 46.175781 29.96875 48.347656 27.585938 C 48.523438 27.398438 48.515625 27.101562 48.332031 26.917969 C 44.417969 22.996094 40.574219 20.289062 37.210938 19.386719 C 36.476562 19.191406 35.785156 19.089844 35.136719 19.089844 Z M 64.863281 19.089844 C 64.210938 19.089844 63.523438 19.191406 62.789062 19.386719 C 59.425781 20.289062 55.582031 22.996094 51.667969 26.921875 C 51.484375 27.105469 51.480469 27.398438 51.652344 27.585938 C 53.824219 29.96875 55.980469 32.6875 58.054688 35.679688 C 58.136719 35.796875 58.265625 35.871094 58.40625 35.886719 C 61.941406 36.203125 65.265625 36.71875 68.308594 37.402344 C 68.5625 37.460938 68.816406 37.304688 68.882812 37.054688 C 70.003906 32.671875 70.417969 28.859375 70.164062 25.878906 C 69.910156 22.898438 68.988281 20.691406 67.285156 19.699219 C 66.585938 19.285156 65.761719 19.089844 64.863281 19.089844 Z M 35.136719 20.054688 C 35.683594 20.054688 36.292969 20.140625 36.960938 20.316406 C 39.941406 21.117188 43.59375 23.652344 47.324219 27.328125 C 45.277344 29.605469 43.246094 32.152344 41.289062 34.957031 C 37.976562 35.265625 34.867188 35.753906 31.972656 36.386719 C 30.957031 32.273438 30.566406 28.679688 30.800781 25.960938 C 31.039062 23.140625 31.917969 21.28125 33.199219 20.53125 C 33.738281 20.214844 34.375 20.054688 35.136719 20.054688 Z M 64.863281 20.054688 C 65.621094 20.054688 66.261719 20.21875 66.796875 20.53125 C 66.796875 20.53125 66.796875 20.53125 66.800781 20.53125 C 68.082031 21.28125 68.960938 23.140625 69.199219 25.964844 C 69.433594 28.683594 69.042969 32.277344 68.027344 36.386719 C 65.132812 35.757812 62.023438 35.265625 58.710938 34.957031 C 56.753906 32.152344 54.722656 29.605469 52.675781 27.328125 C 56.40625 23.652344 60.058594 21.117188 63.039062 20.316406 C 63.707031 20.140625 64.316406 20.054688 64.863281 20.054688 Z M 49.96875 28.886719 C 49.84375 28.894531 49.726562 28.953125 49.640625 29.046875 C 48.050781 30.804688 46.460938 32.753906 44.910156 34.859375 C 44.800781 35.007812 44.789062 35.210938 44.875 35.375 C 44.964844 35.539062 45.140625 35.636719 45.324219 35.628906 C 46.855469 35.554688 48.414062 35.511719 50 35.511719 C 51.585938 35.511719 53.144531 35.554688 54.675781 35.628906 C 54.863281 35.636719 55.039062 35.539062 55.125 35.375 C 55.214844 35.210938 55.199219 35.007812 55.089844 34.859375 C 53.539062 32.753906 51.949219 30.804688 50.359375 29.046875 C 50.257812 28.9375 50.117188 28.878906 49.96875 28.886719 Z M 50 30.132812 C 51.230469 31.519531 52.453125 33.039062 53.664062 34.636719 C 52.453125 34.589844 51.246094 34.542969 50 34.542969 C 48.753906 34.542969 47.546875 34.589844 46.335938 34.636719 C 47.546875 33.039062 48.769531 31.519531 50 30.132812 Z M 50 37.441406 C 47.625 37.441406 45.335938 37.53125 43.144531 37.695312 C 42.996094 37.707031 42.863281 37.785156 42.78125 37.90625 C 41.542969 39.746094 40.339844 41.667969 39.191406 43.675781 C 38.007812 45.753906 36.945312 47.792969 35.996094 49.792969 C 35.933594 49.925781 35.933594 50.078125 35.996094 50.210938 C 36.945312 52.207031 38.007812 54.25 39.191406 56.324219 C 40.339844 58.332031 41.542969 60.253906 42.777344 62.09375 C 42.859375 62.214844 42.996094 62.292969 43.144531 62.304688 C 45.335938 62.46875 47.625 62.558594 50 62.558594 C 52.375 62.558594 54.664062 62.46875 56.859375 62.304688 C 57.003906 62.292969 57.140625 62.214844 57.222656 62.09375 C 58.457031 60.253906 59.664062 58.332031 60.808594 56.324219 C 61.992188 54.25 63.054688 52.207031 64.007812 50.210938 C 64.070312 50.078125 64.070312 49.925781 64.007812 49.792969 C 63.054688 47.792969 61.992188 45.75 60.808594 43.675781 C 59.664062 41.667969 58.457031 39.746094 57.222656 37.90625 C 57.140625 37.785156 57.003906 37.707031 56.855469 37.695312 C 54.660156 37.53125 52.375 37.441406 50 37.441406 Z M 39.503906 38.050781 C 39.476562 38.046875 39.453125 38.050781 39.425781 38.054688 C 36.878906 38.359375 34.488281 38.769531 32.273438 39.261719 C 32.144531 39.292969 32.03125 39.375 31.960938 39.492188 C 31.894531 39.609375 31.878906 39.746094 31.917969 39.875 C 32.59375 42.070312 33.429688 44.371094 34.441406 46.765625 C 34.515625 46.9375 34.683594 47.050781 34.871094 47.058594 C 35.058594 47.066406 35.230469 46.964844 35.316406 46.796875 C 36.007812 45.445312 36.734375 44.082031 37.515625 42.71875 C 38.285156 41.371094 39.078125 40.066406 39.890625 38.789062 C 39.984375 38.644531 39.992188 38.460938 39.910156 38.308594 C 39.832031 38.15625 39.675781 38.054688 39.503906 38.050781 Z M 60.523438 38.050781 C 60.507812 38.050781 60.492188 38.050781 60.476562 38.050781 C 60.308594 38.066406 60.160156 38.167969 60.082031 38.316406 C 60.007812 38.46875 60.019531 38.648438 60.109375 38.792969 C 60.917969 40.070312 61.71875 41.371094 62.484375 42.71875 C 62.484375 42.71875 62.484375 42.71875 62.484375 42.722656 C 63.265625 44.085938 63.992188 45.441406 64.683594 46.796875 C 64.765625 46.964844 64.941406 47.066406 65.128906 47.058594 C 65.316406 47.054688 65.484375 46.9375 65.558594 46.765625 C 66.570312 44.375 67.40625 42.070312 68.082031 39.878906 C 68.121094 39.75 68.105469 39.609375 68.039062 39.492188 C 67.972656 39.375 67.859375 39.292969 67.726562 39.261719 C 65.511719 38.769531 63.121094 38.359375 60.574219 38.054688 C 60.558594 38.050781 60.539062 38.050781 60.523438 38.050781 Z M 50 38.40625 C 52.269531 38.40625 54.445312 38.496094 56.546875 38.648438 C 57.726562 40.410156 58.875 42.242188 59.96875 44.15625 C 61.101562 46.136719 62.109375 48.085938 63.023438 50 C 62.109375 51.914062 61.101562 53.863281 59.96875 55.84375 C 58.878906 57.757812 57.726562 59.589844 56.546875 61.351562 C 54.445312 61.503906 52.269531 61.59375 50 61.59375 C 47.730469 61.59375 45.554688 61.503906 43.453125 61.351562 C 42.273438 59.589844 41.121094 57.757812 40.03125 55.84375 C 38.898438 53.863281 37.890625 51.914062 36.976562 50 C 37.890625 48.089844 38.898438 46.136719 40.03125 44.15625 C 41.125 42.238281 42.277344 40.410156 43.453125 38.648438 C 45.554688 38.496094 47.734375 38.40625 50 38.40625 Z M 38.523438 39.183594 C 37.898438 40.1875 37.277344 41.1875 36.675781 42.238281 C 36.070312 43.300781 35.519531 44.351562 34.96875 45.402344 C 34.230469 43.585938 33.570312 41.808594 33.03125 40.113281 C 34.75 39.742188 36.601562 39.441406 38.523438 39.183594 Z M 61.476562 39.183594 C 63.398438 39.441406 65.246094 39.746094 66.96875 40.113281 C 66.429688 41.808594 65.765625 43.585938 65.027344 45.402344 C 64.480469 44.351562 63.929688 43.300781 63.324219 42.242188 C 62.726562 41.191406 62.097656 40.1875 61.476562 39.183594 Z M 29.542969 39.953125 C 29.503906 39.953125 29.464844 39.960938 29.425781 39.96875 C 25.074219 41.167969 21.566406 42.703125 19.117188 44.410156 C 16.667969 46.117188 15.222656 48.019531 15.222656 50 C 15.222656 51.980469 16.667969 53.882812 19.117188 55.589844 C 21.566406 57.296875 25.074219 58.832031 29.425781 60.03125 C 29.679688 60.097656 29.9375 59.953125 30.015625 59.707031 C 30.945312 56.675781 32.167969 53.484375 33.671875 50.203125 C 33.730469 50.074219 33.730469 49.925781 33.671875 49.796875 C 32.167969 46.515625 30.945312 43.324219 30.015625 40.292969 C 29.953125 40.085938 29.757812 39.949219 29.542969 39.953125 Z M 70.429688 39.953125 C 70.222656 39.960938 70.042969 40.097656 69.984375 40.292969 C 69.054688 43.324219 67.832031 46.515625 66.328125 49.796875 C 66.269531 49.925781 66.269531 50.074219 66.328125 50.203125 C 67.832031 53.484375 69.054688 56.675781 69.984375 59.707031 C 70.0625 59.953125 70.320312 60.097656 70.574219 60.03125 C 74.925781 58.832031 78.433594 57.296875 80.882812 55.589844 C 83.332031 53.882812 84.777344 51.980469 84.777344 50 C 84.777344 48.019531 83.332031 46.117188 80.882812 44.410156 C 78.433594 42.703125 74.925781 41.167969 70.574219 39.96875 C 70.527344 39.957031 70.476562 39.953125 70.429688 39.953125 Z M 29.273438 41.042969 C 30.175781 43.917969 31.308594 46.917969 32.714844 50 C 31.308594 53.082031 30.175781 56.082031 29.273438 58.957031 C 25.207031 57.796875 21.90625 56.355469 19.671875 54.796875 C 17.355469 53.183594 16.191406 51.496094 16.191406 50 C 16.191406 48.503906 17.355469 46.816406 19.671875 45.203125 C 21.90625 43.644531 25.207031 42.203125 29.273438 41.042969 Z M 70.726562 41.042969 C 74.792969 42.203125 78.09375 43.644531 80.328125 45.203125 C 82.644531 46.816406 83.808594 48.503906 83.808594 50 C 83.808594 51.496094 82.644531 53.183594 80.328125 54.796875 C 78.09375 56.355469 74.792969 57.796875 70.726562 58.957031 C 69.824219 56.082031 68.691406 53.082031 67.285156 50 C 68.691406 46.917969 69.824219 43.917969 70.726562 41.042969 Z M 50 42.273438 C 45.742188 42.273438 42.273438 45.742188 42.273438 50 C 42.273438 54.257812 45.742188 57.726562 50 57.726562 C 54.257812 57.726562 57.726562 54.257812 57.726562 50 C 57.726562 45.742188 54.257812 42.273438 50 42.273438 Z M 50 44.203125 C 53.210938 44.203125 55.796875 46.789062 55.796875 50 C 55.796875 53.210938 53.210938 55.796875 50 55.796875 C 46.789062 55.796875 44.203125 53.210938 44.203125 50 C 44.203125 46.789062 46.789062 44.203125 50 44.203125 Z M 34.886719 52.941406 C 34.691406 52.941406 34.519531 53.058594 34.441406 53.234375 C 33.429688 55.625 32.59375 57.929688 31.917969 60.121094 C 31.878906 60.25 31.894531 60.390625 31.960938 60.507812 C 32.027344 60.625 32.140625 60.707031 32.273438 60.738281 C 34.488281 61.230469 36.875 61.640625 39.425781 61.945312 C 39.609375 61.96875 39.792969 61.882812 39.890625 61.722656 C 39.992188 61.566406 39.988281 61.363281 39.890625 61.207031 C 39.078125 59.933594 38.28125 58.628906 37.511719 57.28125 C 36.734375 55.917969 36.007812 54.558594 35.316406 53.207031 C 35.234375 53.042969 35.070312 52.941406 34.886719 52.941406 Z M 65.097656 52.941406 C 64.921875 52.945312 64.761719 53.046875 64.683594 53.207031 C 63.992188 54.558594 63.265625 55.917969 62.484375 57.28125 C 61.71875 58.628906 60.917969 59.929688 60.109375 61.207031 C 60.007812 61.363281 60.007812 61.566406 60.105469 61.722656 C 60.207031 61.882812 60.386719 61.96875 60.574219 61.945312 C 63.121094 61.640625 65.511719 61.230469 67.726562 60.738281 C 67.859375 60.707031 67.972656 60.625 68.039062 60.507812 C 68.105469 60.390625 68.121094 60.25 68.082031 60.121094 C 67.40625 57.929688 66.570312 55.628906 65.558594 53.234375 C 65.480469 53.050781 65.296875 52.933594 65.097656 52.941406 Z M 34.972656 54.597656 C 35.519531 55.648438 36.070312 56.703125 36.675781 57.761719 C 37.273438 58.8125 37.898438 59.8125 38.523438 60.816406 C 36.601562 60.558594 34.75 60.253906 33.03125 59.886719 C 33.570312 58.191406 34.234375 56.414062 34.972656 54.597656 Z M 65.027344 54.597656 C 65.765625 56.417969 66.429688 58.191406 66.96875 59.886719 C 65.25 60.253906 63.398438 60.558594 61.476562 60.816406 C 62.101562 59.8125 62.726562 58.808594 63.324219 57.761719 C 63.929688 56.703125 64.480469 55.648438 65.027344 54.597656 Z M 68.421875 62.582031 C 68.382812 62.582031 68.34375 62.585938 68.308594 62.597656 C 65.265625 63.28125 61.941406 63.796875 58.40625 64.113281 C 58.265625 64.128906 58.136719 64.203125 58.054688 64.320312 C 55.980469 67.3125 53.824219 70.03125 51.652344 72.414062 C 51.476562 72.601562 51.484375 72.898438 51.667969 73.082031 C 55.582031 77.003906 59.425781 79.710938 62.789062 80.613281 C 64.542969 81.082031 66.078125 81.007812 67.285156 80.300781 C 68.988281 79.308594 69.910156 77.101562 70.164062 74.121094 C 70.417969 71.140625 70.003906 67.328125 68.878906 62.945312 C 68.828125 62.734375 68.640625 62.585938 68.421875 62.582031 Z M 31.597656 62.585938 C 31.371094 62.578125 31.171875 62.730469 31.117188 62.945312 C 29.996094 67.328125 29.582031 71.140625 29.835938 74.121094 C 30.089844 77.101562 31.011719 79.308594 32.714844 80.300781 C 32.714844 80.304688 32.714844 80.304688 32.714844 80.304688 C 33.921875 81.007812 35.457031 81.082031 37.210938 80.613281 C 40.574219 79.710938 44.417969 77.003906 48.332031 73.082031 C 48.515625 72.898438 48.519531 72.605469 48.347656 72.414062 C 46.175781 70.035156 44.019531 67.3125 41.945312 64.320312 C 41.863281 64.203125 41.734375 64.128906 41.59375 64.113281 C 38.058594 63.796875 34.734375 63.28125 31.691406 62.597656 C 31.660156 62.589844 31.628906 62.585938 31.597656 62.585938 Z M 68.027344 63.613281 C 69.039062 67.722656 69.433594 71.316406 69.199219 74.039062 C 68.960938 76.859375 68.082031 78.71875 66.800781 79.46875 C 65.875 80.007812 64.636719 80.109375 63.039062 79.683594 C 60.058594 78.882812 56.40625 76.347656 52.675781 72.671875 C 54.722656 70.394531 56.753906 67.847656 58.710938 65.042969 C 62.023438 64.734375 65.132812 64.242188 68.027344 63.613281 Z M 31.972656 63.613281 C 34.867188 64.246094 37.976562 64.734375 41.289062 65.042969 C 43.242188 67.847656 45.273438 70.394531 47.324219 72.675781 C 43.589844 76.347656 39.941406 78.882812 36.960938 79.683594 C 35.367188 80.105469 34.125 80.007812 33.199219 79.46875 C 31.917969 78.71875 31.039062 76.859375 30.800781 74.039062 C 30.566406 71.316406 30.957031 67.726562 31.972656 63.613281 Z M 45.277344 64.371094 C 45.097656 64.382812 44.941406 64.488281 44.863281 64.648438 C 44.789062 64.808594 44.808594 64.996094 44.910156 65.140625 C 46.460938 67.246094 48.050781 69.195312 49.640625 70.953125 C 49.734375 71.054688 49.863281 71.113281 50 71.113281 C 50.136719 71.113281 50.265625 71.054688 50.359375 70.953125 C 51.949219 69.191406 53.539062 67.246094 55.089844 65.140625 C 55.199219 64.992188 55.210938 64.789062 55.125 64.625 C 55.035156 64.460938 54.859375 64.363281 54.675781 64.371094 C 53.144531 64.445312 51.585938 64.488281 50 64.488281 C 48.414062 64.488281 46.855469 64.445312 45.324219 64.371094 C 45.308594 64.371094 45.292969 64.371094 45.277344 64.371094 Z M 46.335938 65.363281 C 47.546875 65.410156 48.753906 65.457031 50 65.457031 C 51.246094 65.457031 52.453125 65.410156 53.664062 65.363281 C 52.453125 66.960938 51.230469 68.480469 50 69.867188 C 48.769531 68.480469 47.546875 66.960938 46.335938 65.363281 Z M 46.335938 65.363281 "/>
</g>
</svg>
