<?xml version="1.0" encoding="UTF-8"?>
<svg xmlns="http://www.w3.org/2000/svg" xmlns:xlink="http://www.w3.org/1999/xlink" viewBox="0 0 50 50" width="50px" height="50px">
<g id="surface289461565">
<path style="fill-rule:nonzero;fill:rgb(90.196079%,49.411765%,13.333334%);fill-opacity:1;stroke-width:6;stroke-linecap:butt;stroke-linejoin:round;stroke:rgb(80.000001%,80.000001%,80.000001%);stroke-opacity:1;stroke-miterlimit:10;" d="M 64.563987 26.504981 C 71.199274 28.28552 78.571815 33.376746 85.999998 40.665825 C 93.428181 33.376746 100.800722 28.28552 107.43601 26.504981 C 111.956908 25.294772 116.032671 25.628623 119.385091 27.589997 C 123.64169 30.079968 126.07602 34.962538 126.868916 41.277885 C 127.647901 47.398485 126.868916 54.993594 124.782347 63.423329 C 133.12862 65.802017 140.097758 68.904049 145.008149 72.632051 C 150.085465 76.471336 153.076213 81.033966 153.076213 85.999998 C 153.076213 90.966031 150.085465 95.52866 145.008149 99.367946 C 140.097758 103.095948 133.12862 106.197979 124.782347 108.576667 C 126.868916 117.006403 127.647901 124.601511 126.868916 130.722112 C 126.07602 137.051369 123.64169 141.920028 119.385091 144.409999 C 117.326343 145.606299 115.003297 146.204448 112.485505 146.204448 C 110.885802 146.204448 109.188727 145.96797 107.43601 145.495015 C 100.800722 143.714477 93.428181 138.62325 85.999998 131.334172 C 78.571815 138.62325 71.199274 143.714477 64.563987 145.495015 C 62.811269 145.96797 61.114194 146.204448 59.514491 146.204448 C 56.996699 146.204448 54.673653 145.606299 52.614906 144.409999 C 48.358306 141.920028 45.923977 137.051369 45.131081 130.722112 C 44.352095 124.601511 45.131081 117.006403 47.217649 108.576667 C 38.871376 106.197979 31.902238 103.095948 26.991847 99.367946 C 21.914531 95.52866 18.923783 90.966031 18.923783 85.999998 C 18.923783 81.033966 21.914531 76.471336 26.991847 72.632051 C 31.902238 68.904049 38.871376 65.802017 47.217649 63.423329 C 45.131081 54.993594 44.352095 47.398485 45.131081 41.277885 C 45.923977 34.948628 48.358306 30.079968 52.614906 27.589997 C 54.298071 26.616265 56.148161 26.032026 58.151267 25.8651 C 58.652043 25.809459 59.16673 25.795548 59.681417 25.795548 C 61.239388 25.809459 62.866911 26.045936 64.563987 26.504981 Z M 58.318192 27.562176 C 56.551565 27.715191 54.937952 28.229878 53.491264 29.078416 C 49.818904 31.220626 47.593231 35.491135 46.828156 41.500452 C 46.076992 47.495858 46.828156 55.160519 49.026008 63.771091 C 49.137292 64.230136 48.872993 64.689181 48.413948 64.814375 C 39.859018 67.179152 32.848149 70.336826 28.021221 73.995275 C 23.208203 77.653725 20.634769 81.715578 20.634769 85.999998 C 20.634769 90.284418 23.208203 94.346271 28.021221 98.004721 C 32.848149 101.663171 39.859018 104.820844 48.413948 107.185621 C 48.872993 107.310816 49.137292 107.769861 49.026008 108.228906 C 46.828156 116.839477 46.076992 124.504138 46.828156 130.513455 C 47.593231 136.508861 49.818904 140.779371 53.491264 142.921581 C 55.271803 143.964865 57.260998 144.493462 59.514491 144.493462 C 60.947268 144.493462 62.477418 144.270895 64.118852 143.82576 L 64.118852 143.839671 C 70.434199 142.142595 77.890203 137.0931 85.387938 129.609275 C 85.721789 129.275424 86.278207 129.275424 86.612058 129.609275 C 94.109794 137.0931 101.565798 142.142595 107.881144 143.839671 L 107.881144 143.82576 C 109.522578 144.270895 111.052728 144.493462 112.485505 144.493462 C 114.738999 144.493462 116.742104 143.964865 118.508732 142.921581 C 122.181092 140.779371 124.406765 136.508861 125.17184 130.513455 C 125.923005 124.504138 125.17184 116.839477 122.973988 108.228906 C 122.862704 107.769861 123.127003 107.310816 123.586048 107.185621 C 132.140978 104.820844 139.151847 101.663171 143.978775 98.004721 C 148.791793 94.346271 151.365227 90.284418 151.365227 85.999998 C 151.365227 81.715578 148.791793 77.653725 143.978775 73.995275 C 139.151847 70.336826 132.140978 67.179152 123.586048 64.814375 C 123.127003 64.689181 122.862704 64.230136 122.973988 63.771091 C 125.17184 55.160519 125.923005 47.495858 125.17184 41.500452 C 124.406765 35.491135 122.181092 31.220626 118.508732 29.078416 C 115.601447 27.38134 112.082102 27.047489 107.881144 28.174236 C 101.565798 29.857401 94.109794 34.906896 86.612058 42.390721 C 86.278207 42.724572 85.721789 42.724572 85.387938 42.390721 C 77.890203 34.906896 70.434199 29.857401 64.118852 28.174236 C 62.546971 27.743012 61.058552 27.534355 59.681417 27.506534 C 59.208461 27.506534 58.763327 27.520445 58.318192 27.562176 Z M 63.228583 31.484924 C 69.210079 33.098537 76.054023 37.911555 83.037071 44.908514 C 83.357012 45.228454 83.370922 45.757051 83.050982 46.090902 C 79.197786 50.333591 75.3585 55.174429 71.658319 60.502134 C 71.519214 60.710791 71.282737 60.849895 71.032348 60.863806 C 64.730912 61.434134 58.818969 62.352224 53.393891 63.576344 C 52.948757 63.673718 52.489712 63.395508 52.378428 62.950374 C 50.375322 55.146609 49.651979 48.358306 50.097113 43.058423 C 50.556158 37.744629 52.183682 33.821881 55.216161 32.041342 C 56.468102 31.317999 57.9287 30.956327 59.542312 30.956327 C 60.69688 30.956327 61.921 31.137163 63.228583 31.484924 Z M 116.783835 32.041342 C 119.816315 33.821881 121.443838 37.744629 121.902883 43.058423 C 122.348018 48.358306 121.624674 55.146609 119.621568 62.950374 C 119.510285 63.395508 119.05124 63.673718 118.606105 63.576344 C 113.181028 62.352224 107.269084 61.434134 100.967648 60.863806 C 100.71726 60.849895 100.480782 60.710791 100.341677 60.502134 C 96.641496 55.174429 92.802211 50.333591 88.949015 46.090902 C 88.629074 45.757051 88.642985 45.228454 88.962925 44.908514 C 95.945974 37.925465 102.789918 33.098537 108.771413 31.484924 C 110.078996 31.137163 111.303116 30.956327 112.457684 30.956327 C 114.071297 30.956327 115.531895 31.317999 116.783835 32.041342 Z M 56.092519 33.529761 C 53.797294 34.865165 52.239323 38.175853 51.808099 43.197528 C 51.404696 48.038366 52.100219 54.437175 53.894668 61.754075 C 59.055446 60.641238 64.591808 59.76488 70.489841 59.222372 C 73.967454 54.228518 77.584173 49.69371 81.242622 45.631857 C 74.593425 39.093943 68.083332 34.573045 62.783448 33.154179 C 61.60106 32.834238 60.516044 32.681223 59.542312 32.681223 C 58.179088 32.681223 57.052341 32.973343 56.092519 33.529761 Z M 109.216548 33.154179 C 103.916664 34.573045 97.406571 39.093943 90.757374 45.631857 C 94.415824 49.69371 98.032542 54.214608 101.510156 59.222372 C 107.408189 59.76488 112.94455 60.641238 118.105329 61.767985 C 119.899777 54.437175 120.5953 48.052276 120.191897 43.197528 C 119.760673 38.175853 118.202702 34.865165 115.907477 33.529761 C 114.947655 32.973343 113.820909 32.681223 112.457684 32.681223 C 111.483952 32.681223 110.398937 32.834238 109.216548 33.154179 Z M 86.639879 48.692157 C 89.477612 51.82201 92.301434 55.285713 95.055704 59.041536 C 95.264361 59.305835 95.278272 59.667506 95.125257 59.959626 C 94.972242 60.251746 94.652301 60.432582 94.31845 60.404761 C 91.592001 60.279567 88.823821 60.196104 85.999998 60.196104 C 83.176176 60.196104 80.407995 60.279567 77.681546 60.404761 C 77.347695 60.418671 77.027755 60.251746 76.87474 59.959626 C 76.721725 59.667506 76.749545 59.305835 76.944292 59.041536 C 79.698562 55.299624 82.522384 51.82201 85.360117 48.692157 C 85.513132 48.525232 85.721789 48.427859 85.944356 48.413948 C 86.208655 48.386127 86.459043 48.497411 86.639879 48.692157 Z M 79.475995 58.638133 C 81.632115 58.55467 83.788236 58.485118 85.999998 58.485118 C 88.211761 58.485118 90.367881 58.55467 92.524002 58.638133 C 90.367881 55.8004 88.18394 53.087861 85.999998 50.625711 C 83.816057 53.087861 81.632115 55.8004 79.475995 58.638133 Z M 98.213378 64.091031 C 98.477676 64.118852 98.714154 64.244046 98.853259 64.466614 C 101.065021 67.749481 103.207231 71.171453 105.252068 74.732529 C 105.252068 74.74644 105.252068 74.74644 105.252068 74.74644 C 107.352547 78.432711 109.244369 82.063339 110.941444 85.624416 C 111.052728 85.860894 111.052728 86.139103 110.941444 86.37558 C 109.244369 89.936657 107.352547 93.567286 105.252068 97.267467 C 103.207231 100.828543 101.065021 104.250515 98.853259 107.533383 C 98.714154 107.74204 98.477676 107.881144 98.213378 107.908965 C 94.30454 108.201085 90.228777 108.3541 85.999998 108.3541 C 81.77122 108.3541 77.695456 108.201085 73.786618 107.908965 C 73.52232 107.881144 73.285842 107.75595 73.146738 107.533383 C 70.934975 104.250515 68.792765 100.828543 66.761839 97.267467 C 64.647449 93.567286 62.755628 89.936657 61.058552 86.37558 C 60.947268 86.139103 60.947268 85.860894 61.058552 85.624416 C 62.755628 82.07725 64.647449 78.432711 66.761839 74.74644 C 68.792765 71.171453 70.934975 67.749481 73.146738 64.466614 C 73.285842 64.257957 73.53623 64.118852 73.786618 64.091031 C 77.695456 63.798912 81.77122 63.645897 85.999998 63.645897 C 90.228777 63.645897 94.30454 63.798912 98.213378 64.091031 Z M 68.0416 65.176047 C 68.180705 65.454256 68.166795 65.788107 67.999869 66.038495 C 66.553182 68.31981 65.134315 70.642856 63.771091 73.035454 C 62.380045 75.469784 61.086373 77.890203 59.862253 80.296712 C 59.709238 80.588831 59.389297 80.769667 59.055446 80.769667 C 58.721596 80.755757 58.429476 80.5471 58.304282 80.24107 C 56.495923 75.98447 55.007504 71.880886 53.797294 67.972048 C 53.727742 67.749481 53.755563 67.499093 53.880757 67.290436 C 54.005951 67.081779 54.200698 66.928764 54.437175 66.887033 C 58.387745 65.996764 62.630433 65.27342 67.179152 64.730912 C 67.220884 64.717002 67.262615 64.717002 67.304346 64.717002 C 67.610376 64.730912 67.888585 64.911748 68.0416 65.176047 Z M 104.820844 64.730912 C 109.369563 65.27342 113.626162 65.996764 117.562821 66.887033 C 117.799299 66.928764 117.994045 67.081779 118.119239 67.290436 C 118.244433 67.499093 118.272254 67.749481 118.202702 67.972048 C 116.992492 71.880886 115.504074 75.98447 113.695714 80.24107 C 113.57052 80.5471 113.278401 80.755757 112.94455 80.769667 C 112.610699 80.783577 112.290758 80.588831 112.137743 80.296712 C 110.913623 77.890203 109.619951 75.469784 108.228906 73.035454 C 106.865681 70.642856 105.446815 68.31981 104.000127 66.038495 C 103.833202 65.788107 103.819291 65.468166 103.958396 65.203868 C 104.08359 64.925659 104.347889 64.744823 104.653919 64.730912 C 104.681739 64.717002 104.70956 64.717002 104.737381 64.717002 C 104.765202 64.717002 104.793023 64.730912 104.820844 64.730912 Z M 74.343037 65.788107 C 72.242558 68.93187 70.197721 72.186916 68.250257 75.594978 C 66.233241 79.128233 64.438793 82.591937 62.811269 85.999998 C 64.438793 89.40806 66.233241 92.871763 68.250257 96.405019 C 70.197721 99.81308 72.242558 103.068127 74.343037 106.21189 C 78.084949 106.476188 81.965966 106.643114 85.999998 106.643114 C 90.03403 106.643114 93.915047 106.476188 97.65696 106.21189 C 99.757438 103.068127 101.802275 99.81308 103.749739 96.405019 C 105.766755 92.871763 107.561204 89.40806 109.188727 85.999998 C 107.561204 82.591937 105.766755 79.128233 103.749739 75.594978 C 101.802275 72.186916 99.757438 68.93187 97.65696 65.788107 C 93.915047 65.523808 90.03403 65.356883 85.999998 65.356883 C 81.965966 65.356883 78.084949 65.523808 74.343037 65.788107 Z M 55.786489 68.389362 C 56.746311 71.407931 57.9287 74.579514 59.236282 77.82065 C 60.210014 75.942739 61.197657 74.064828 62.282672 72.186916 C 63.339867 70.309005 64.452703 68.528466 65.565539 66.734018 C 62.143567 67.193063 58.84679 67.73557 55.786489 68.389362 Z M 109.731235 72.186916 C 110.80234 74.064828 111.776072 75.942739 112.763714 77.82065 C 114.071297 74.579514 115.253685 71.407931 116.213507 68.403272 C 113.153207 67.73557 109.856429 67.206973 106.434457 66.747928 C 107.547293 68.528466 108.66013 70.309005 109.731235 72.186916 Z M 50.417054 68.723213 C 52.072398 74.106559 54.242429 79.795935 56.927147 85.638326 C 57.02452 85.874804 57.02452 86.125192 56.927147 86.36167 C 54.242429 92.204061 52.072398 97.893437 50.417054 103.276783 C 50.277949 103.721918 49.818904 103.986217 49.37377 103.861023 C 41.611736 101.718813 35.379852 98.992363 31.011969 95.959884 C 26.657996 92.913494 24.084562 89.519343 24.084562 85.999998 C 24.084562 82.480653 26.657996 79.086502 31.011969 76.040112 C 35.379852 73.007633 41.611736 70.281184 49.37377 68.138974 C 49.429411 68.125063 49.498964 68.111153 49.568516 68.111153 C 49.958009 68.097242 50.30577 68.347631 50.417054 68.723213 Z M 122.626227 68.138974 C 130.388261 70.281184 136.620145 73.007633 140.988028 76.040112 C 145.342 79.086502 147.915434 82.480653 147.915434 85.999998 C 147.915434 89.519343 145.342 92.913494 140.988028 95.959884 C 136.620145 98.992363 130.388261 101.718813 122.626227 103.861023 C 122.181092 103.986217 121.722047 103.721918 121.582943 103.276783 C 119.927598 97.893437 117.757567 92.204061 115.072849 86.36167 C 114.975476 86.125192 114.975476 85.874804 115.072849 85.638326 C 117.757567 79.795935 119.927598 74.106559 121.582943 68.723213 C 121.694226 68.361541 122.014167 68.125063 122.375838 68.111153 C 122.459301 68.111153 122.542764 68.125063 122.626227 68.138974 Z M 31.999611 77.458979 C 27.868206 80.324532 25.795548 83.343101 25.795548 85.999998 C 25.795548 88.656895 27.868206 91.675464 31.999611 94.541018 C 35.978001 97.309198 41.862124 99.882632 49.095561 101.94138 C 50.709173 96.822332 52.726189 91.494628 55.216161 85.999998 C 52.726189 80.505368 50.709173 75.177664 49.095561 70.058616 C 41.862124 72.117364 35.978001 74.690798 31.999611 77.458979 Z M 116.783835 85.999998 C 119.273807 91.494628 121.290823 96.822332 122.904436 101.94138 C 130.137872 99.882632 136.021995 97.309198 140.000385 94.541018 C 144.13179 91.675464 146.204448 88.656895 146.204448 85.999998 C 146.204448 83.343101 144.13179 80.324532 140.000385 77.458979 C 136.021995 74.690798 130.137872 72.117364 122.904436 70.058616 C 121.290823 75.163754 119.273807 80.505368 116.783835 85.999998 Z M 99.757438 85.999998 C 99.757438 93.581196 93.581196 99.757438 85.999998 99.757438 C 78.4188 99.757438 72.242558 93.581196 72.242558 85.999998 C 72.242558 78.4188 78.4188 72.242558 85.999998 72.242558 C 93.581196 72.242558 99.757438 78.4188 99.757438 85.999998 Z M 75.67844 85.999998 C 75.67844 91.717195 80.282801 96.321556 85.999998 96.321556 C 91.717195 96.321556 96.321556 91.717195 96.321556 85.999998 C 96.321556 80.282801 91.717195 75.67844 85.999998 75.67844 C 80.282801 75.67844 75.67844 80.282801 75.67844 85.999998 Z M 59.862253 91.703285 C 61.086373 94.109794 62.380045 96.530213 63.771091 98.964542 C 65.134315 101.371051 66.553182 103.680187 67.999869 105.961501 C 68.180705 106.23971 68.180705 106.587472 67.999869 106.879591 C 67.819033 107.1578 67.499093 107.310816 67.165242 107.269084 C 62.630433 106.726576 58.373834 106.003233 54.437175 105.112964 C 54.200698 105.071232 54.005951 104.918217 53.880757 104.70956 C 53.755563 104.500904 53.727742 104.250515 53.797294 104.027948 C 55.007504 100.11911 56.495923 96.015526 58.304282 91.758927 C 58.429476 91.438986 58.749416 91.230329 59.097178 91.230329 C 59.417118 91.24424 59.709238 91.425076 59.862253 91.703285 Z M 113.695714 91.758927 C 115.504074 96.015526 116.992492 100.11911 118.202702 104.027948 C 118.272254 104.250515 118.244433 104.500904 118.119239 104.70956 C 117.994045 104.918217 117.799299 105.071232 117.562821 105.112964 C 113.612252 106.003233 109.369563 106.726576 104.820844 107.269084 C 104.500904 107.310816 104.167053 107.1578 104.000127 106.879591 C 103.819291 106.587472 103.819291 106.23971 104.000127 105.961501 C 105.446815 103.680187 106.865681 101.357141 108.228906 98.964542 C 109.619951 96.530213 110.913623 94.109794 112.137743 91.703285 C 112.290758 91.425076 112.568968 91.24424 112.874998 91.230329 C 113.236669 91.230329 113.55661 91.438986 113.695714 91.758927 Z M 55.786489 103.596724 C 58.84679 104.264426 62.143567 104.793023 65.565539 105.252068 C 64.452703 103.47153 63.339867 101.690992 62.268762 99.81308 C 61.197657 97.935169 60.223925 96.057257 59.236282 94.193256 C 57.9287 97.420482 56.746311 100.592066 55.786489 103.596724 Z M 109.731235 99.81308 C 108.66013 101.690992 107.547293 103.47153 106.434457 105.252068 C 109.856429 104.793023 113.153207 104.264426 116.213507 103.596724 C 115.253685 100.592066 114.071297 97.420482 112.763714 94.193256 C 111.776072 96.057257 110.80234 97.935169 109.731235 99.81308 Z M 119.621568 109.049622 C 121.610763 116.853388 122.348018 123.64169 121.902883 128.941573 C 121.443838 134.255367 119.816315 138.178116 116.783835 139.958654 C 114.627715 141.210595 111.901266 141.349699 108.771413 140.515072 C 102.789918 138.901459 95.945974 134.088442 88.962925 127.091483 C 88.642985 126.771542 88.629074 126.242945 88.949015 125.909094 C 92.802211 121.666405 96.641496 116.825567 100.341677 111.497863 C 100.480782 111.289206 100.71726 111.150101 100.967648 111.136191 C 107.269084 110.565862 113.181028 109.647772 118.592195 108.423652 C 118.661747 108.409741 118.731299 108.409741 118.800851 108.409741 C 119.190344 108.409741 119.524195 108.67404 119.621568 109.049622 Z M 53.393891 108.423652 C 58.818969 109.647772 64.744823 110.565862 71.032348 111.136191 C 71.282737 111.150101 71.519214 111.289206 71.658319 111.497863 C 75.3585 116.825567 79.197786 121.666405 83.050982 125.909094 C 83.370922 126.242945 83.357012 126.771542 83.037071 127.091483 C 76.054023 134.074531 69.210079 138.901459 63.228583 140.515072 C 60.098731 141.335789 57.372281 141.210595 55.230071 139.958654 C 55.230071 139.958654 55.216161 139.958654 55.216161 139.958654 C 52.183682 138.178116 50.556158 134.255367 50.097113 128.941573 C 49.651979 123.64169 50.389233 116.853388 52.378428 109.049622 C 52.475801 108.66013 52.837473 108.395831 53.226966 108.409741 C 53.282608 108.409741 53.35216 108.409741 53.393891 108.423652 Z M 101.510156 112.777624 C 98.032542 117.785388 94.415824 122.306286 90.757374 126.368139 C 97.406571 132.906053 103.916664 137.426951 109.216548 138.845817 C 112.054281 139.610892 114.266043 139.430057 115.907477 138.470235 C 118.202702 137.134831 119.760673 133.824143 120.191897 128.802469 C 120.5953 123.96163 119.899777 117.562821 118.091418 110.232011 C 112.94455 111.358758 107.408189 112.235117 101.510156 112.777624 Z M 51.808099 128.802469 C 52.239323 133.824143 53.797294 137.134831 56.092519 138.470235 C 57.733953 139.430057 59.945716 139.610892 62.783448 138.845817 C 68.083332 137.426951 74.593425 132.919964 81.228712 126.368139 C 77.584173 122.306286 73.967454 117.785388 70.489841 112.777624 C 64.591808 112.235117 59.055446 111.358758 53.894668 110.245922 C 52.100219 117.562821 51.404696 123.96163 51.808099 128.802469 Z M 77.681546 111.595236 C 80.407995 111.72043 83.176176 111.803893 85.999998 111.803893 C 88.823821 111.803893 91.592001 111.72043 94.31845 111.595236 C 94.652301 111.581325 94.972242 111.748251 95.125257 112.04037 C 95.278272 112.33249 95.250451 112.694162 95.055704 112.95846 C 92.301434 116.700373 89.477612 120.177987 86.639879 123.307839 C 86.472954 123.488675 86.236476 123.586048 85.999998 123.586048 C 85.76352 123.586048 85.527043 123.488675 85.360117 123.307839 C 82.522384 120.177987 79.698562 116.714283 76.944292 112.95846 C 76.749545 112.708072 76.721725 112.374221 76.860829 112.082102 C 76.986023 111.789982 77.278143 111.609146 77.584173 111.595236 C 77.611994 111.595236 77.639815 111.595236 77.681546 111.595236 Z M 85.999998 121.374286 C 88.19785 118.912135 90.367881 116.199596 92.524002 113.361864 C 90.367881 113.445326 88.211761 113.514879 85.999998 113.514879 C 83.788236 113.514879 81.632115 113.431416 79.475995 113.361864 C 81.632115 116.199596 83.816057 118.912135 85.999998 121.374286 Z M 85.999998 121.374286 " transform="matrix(0.280814,0,0,0.280814,0.85,0.85)"/>
<path style=" stroke:none;fill-rule:nonzero;fill:rgb(90.196079%,49.411765%,13.333334%);fill-opacity:1;" d="M 17.609375 8.09375 C 17.464844 8.09375 17.320312 8.097656 17.179688 8.113281 C 16.617188 8.160156 16.097656 8.324219 15.625 8.597656 C 14.429688 9.296875 13.746094 10.664062 13.523438 12.441406 C 13.304688 14.160156 13.523438 16.292969 14.109375 18.660156 C 11.765625 19.328125 9.808594 20.199219 8.429688 21.246094 C 7.003906 22.324219 6.164062 23.605469 6.164062 25 C 6.164062 26.394531 7.003906 27.675781 8.429688 28.753906 C 9.808594 29.800781 11.765625 30.671875 14.109375 31.339844 C 13.523438 33.707031 13.304688 35.839844 13.523438 37.558594 C 13.746094 39.335938 14.429688 40.703125 15.625 41.402344 C 16.203125 41.738281 16.855469 41.90625 17.5625 41.90625 C 18.011719 41.90625 18.488281 41.839844 18.980469 41.707031 C 20.84375 41.207031 22.914062 39.777344 25 37.730469 C 27.085938 39.777344 29.15625 41.207031 31.019531 41.707031 C 31.511719 41.839844 31.988281 41.90625 32.4375 41.90625 C 33.144531 41.90625 33.796875 41.738281 34.375 41.402344 C 35.570312 40.703125 36.253906 39.335938 36.476562 37.558594 C 36.695312 35.839844 36.476562 33.707031 35.890625 31.339844 C 38.234375 30.671875 40.191406 29.800781 41.570312 28.753906 C 42.996094 27.675781 43.835938 26.394531 43.835938 25 C 43.835938 23.605469 42.996094 22.324219 41.570312 21.246094 C 40.191406 20.199219 38.234375 19.328125 35.890625 18.660156 C 36.476562 16.292969 36.695312 14.160156 36.476562 12.441406 C 36.253906 10.667969 35.570312 9.296875 34.375 8.597656 C 33.433594 8.046875 32.289062 7.953125 31.019531 8.292969 C 29.15625 8.792969 27.085938 10.222656 25 12.269531 C 22.914062 10.222656 20.84375 8.792969 18.980469 8.292969 C 18.503906 8.164062 18.046875 8.097656 17.609375 8.09375 Z M 17.609375 8.574219 C 17.996094 8.582031 18.414062 8.640625 18.855469 8.761719 C 20.628906 9.234375 22.722656 10.652344 24.828125 12.753906 C 24.921875 12.847656 25.078125 12.847656 25.171875 12.753906 C 27.277344 10.652344 29.371094 9.234375 31.144531 8.761719 C 32.324219 8.445312 33.3125 8.539062 34.128906 9.015625 C 35.160156 9.617188 35.785156 10.816406 36 12.503906 C 36.210938 14.1875 36 16.339844 35.382812 18.757812 C 35.351562 18.886719 35.425781 19.015625 35.554688 19.050781 C 37.957031 19.714844 39.925781 20.601562 41.28125 21.628906 C 42.632812 22.65625 43.355469 23.796875 43.355469 25 C 43.355469 26.203125 42.632812 27.34375 41.28125 28.371094 C 39.925781 29.398438 37.957031 30.285156 35.554688 30.949219 C 35.425781 30.984375 35.351562 31.113281 35.382812 31.242188 C 36 33.660156 36.210938 35.8125 36 37.5 C 35.785156 39.183594 35.160156 40.382812 34.128906 40.984375 C 33.632812 41.277344 33.070312 41.425781 32.4375 41.425781 C 32.035156 41.425781 31.605469 41.363281 31.144531 41.238281 L 31.144531 41.242188 C 29.371094 40.765625 27.277344 39.347656 25.171875 37.246094 C 25.078125 37.152344 24.921875 37.152344 24.828125 37.246094 C 22.722656 39.347656 20.628906 40.765625 18.855469 41.242188 L 18.855469 41.238281 C 18.394531 41.363281 17.964844 41.425781 17.5625 41.425781 C 16.929688 41.425781 16.371094 41.277344 15.871094 40.984375 C 14.839844 40.382812 14.214844 39.183594 14 37.5 C 13.789062 35.8125 14 33.660156 14.617188 31.242188 C 14.648438 31.113281 14.574219 30.984375 14.445312 30.949219 C 12.042969 30.285156 10.074219 29.398438 8.71875 28.371094 C 7.367188 27.34375 6.644531 26.203125 6.644531 25 C 6.644531 23.796875 7.367188 22.65625 8.71875 21.628906 C 10.074219 20.601562 12.042969 19.714844 14.445312 19.050781 C 14.574219 19.015625 14.648438 18.886719 14.617188 18.757812 C 14 16.339844 13.789062 14.1875 14 12.503906 C 14.214844 10.816406 14.839844 9.617188 15.871094 9.015625 C 16.277344 8.777344 16.730469 8.632812 17.226562 8.589844 C 17.351562 8.578125 17.476562 8.574219 17.609375 8.574219 Z M 17.570312 9.542969 C 17.117188 9.542969 16.707031 9.644531 16.355469 9.847656 C 15.503906 10.347656 15.046875 11.449219 14.917969 12.941406 C 14.792969 14.429688 14.996094 16.335938 15.558594 18.527344 C 15.589844 18.652344 15.71875 18.730469 15.84375 18.703125 C 17.367188 18.359375 19.027344 18.101562 20.796875 17.941406 C 20.867188 17.9375 20.933594 17.898438 20.972656 17.839844 C 22.011719 16.34375 23.089844 14.984375 24.171875 13.792969 C 24.261719 13.699219 24.257812 13.550781 24.167969 13.460938 C 22.207031 11.496094 20.285156 10.144531 18.605469 9.691406 C 18.238281 9.59375 17.894531 9.542969 17.570312 9.542969 Z M 32.429688 9.542969 C 32.105469 9.542969 31.761719 9.59375 31.394531 9.691406 C 29.714844 10.144531 27.792969 11.5 25.832031 13.460938 C 25.742188 13.550781 25.738281 13.699219 25.828125 13.792969 C 26.910156 14.984375 27.988281 16.34375 29.027344 17.839844 C 29.066406 17.898438 29.132812 17.9375 29.203125 17.941406 C 30.972656 18.101562 32.632812 18.359375 34.15625 18.703125 C 34.28125 18.730469 34.410156 18.652344 34.441406 18.527344 C 35.003906 16.335938 35.207031 14.429688 35.082031 12.941406 C 34.953125 11.449219 34.496094 10.347656 33.644531 9.847656 C 33.292969 9.644531 32.882812 9.542969 32.429688 9.542969 Z M 17.570312 10.027344 C 17.84375 10.027344 18.148438 10.070312 18.480469 10.160156 C 19.96875 10.558594 21.796875 11.828125 23.664062 13.664062 C 22.636719 14.804688 21.621094 16.078125 20.644531 17.480469 C 18.988281 17.632812 17.433594 17.878906 15.984375 18.191406 C 15.480469 16.136719 15.285156 14.339844 15.398438 12.980469 C 15.519531 11.570312 15.957031 10.640625 16.601562 10.265625 C 16.871094 10.109375 17.1875 10.027344 17.570312 10.027344 Z M 32.429688 10.027344 C 32.8125 10.027344 33.128906 10.109375 33.398438 10.265625 C 34.042969 10.640625 34.480469 11.570312 34.601562 12.980469 C 34.714844 14.34375 34.519531 16.136719 34.015625 18.195312 C 32.566406 17.878906 31.011719 17.632812 29.355469 17.480469 C 28.378906 16.074219 27.363281 14.804688 26.335938 13.664062 C 28.203125 11.828125 30.03125 10.558594 31.519531 10.160156 C 31.851562 10.070312 32.15625 10.027344 32.429688 10.027344 Z M 24.984375 14.445312 C 24.921875 14.449219 24.863281 14.476562 24.820312 14.523438 C 24.023438 15.402344 23.230469 16.378906 22.457031 17.429688 C 22.402344 17.503906 22.394531 17.605469 22.4375 17.6875 C 22.480469 17.769531 22.570312 17.816406 22.664062 17.8125 C 23.429688 17.777344 24.207031 17.753906 25 17.753906 C 25.792969 17.753906 26.570312 17.777344 27.335938 17.8125 C 27.429688 17.820312 27.519531 17.769531 27.5625 17.6875 C 27.605469 17.605469 27.601562 17.503906 27.542969 17.429688 C 26.769531 16.375 25.976562 15.402344 25.179688 14.523438 C 25.128906 14.46875 25.058594 14.4375 24.984375 14.445312 Z M 25 15.066406 C 25.613281 15.757812 26.226562 16.519531 26.832031 17.316406 C 26.226562 17.292969 25.621094 17.273438 25 17.273438 C 24.378906 17.273438 23.773438 17.292969 23.167969 17.316406 C 23.773438 16.519531 24.386719 15.757812 25 15.066406 Z M 25 18.722656 C 23.8125 18.722656 22.667969 18.765625 21.570312 18.847656 C 21.5 18.855469 21.429688 18.894531 21.390625 18.953125 C 20.769531 19.875 20.167969 20.835938 19.597656 21.839844 C 19.003906 22.875 18.472656 23.898438 17.996094 24.894531 C 17.964844 24.960938 17.964844 25.039062 17.996094 25.105469 C 18.472656 26.105469 19.003906 27.125 19.597656 28.164062 C 20.167969 29.164062 20.769531 30.125 21.390625 31.046875 C 21.429688 31.109375 21.496094 31.144531 21.570312 31.152344 C 22.667969 31.234375 23.8125 31.277344 25 31.277344 C 26.1875 31.277344 27.332031 31.234375 28.429688 31.152344 C 28.503906 31.144531 28.570312 31.105469 28.609375 31.046875 C 29.230469 30.125 29.832031 29.164062 30.40625 28.164062 C 30.996094 27.125 31.527344 26.105469 32.003906 25.105469 C 32.035156 25.039062 32.035156 24.960938 32.003906 24.894531 C 31.527344 23.894531 30.996094 22.875 30.40625 21.839844 C 30.40625 21.839844 30.40625 21.839844 30.40625 21.835938 C 29.832031 20.835938 29.230469 19.875 28.609375 18.953125 C 28.570312 18.890625 28.503906 18.855469 28.429688 18.847656 C 27.332031 18.765625 26.1875 18.722656 25 18.722656 Z M 19.75 19.023438 C 19.738281 19.023438 19.726562 19.023438 19.714844 19.027344 C 18.4375 19.179688 17.246094 19.382812 16.136719 19.632812 C 16.070312 19.644531 16.015625 19.6875 15.980469 19.746094 C 15.945312 19.804688 15.9375 19.875 15.957031 19.9375 C 16.296875 21.035156 16.714844 22.1875 17.222656 23.382812 C 17.257812 23.46875 17.339844 23.527344 17.433594 23.53125 C 17.527344 23.53125 17.617188 23.480469 17.660156 23.398438 C 18.003906 22.722656 18.367188 22.042969 18.757812 21.359375 C 19.140625 20.6875 19.539062 20.035156 19.945312 19.394531 C 19.992188 19.324219 19.996094 19.230469 19.957031 19.152344 C 19.914062 19.078125 19.835938 19.027344 19.75 19.023438 Z M 30.261719 19.023438 C 30.253906 19.023438 30.246094 19.023438 30.238281 19.027344 C 30.152344 19.03125 30.078125 19.082031 30.042969 19.160156 C 30.003906 19.234375 30.007812 19.324219 30.054688 19.394531 C 30.460938 20.035156 30.859375 20.6875 31.242188 21.359375 C 31.632812 22.042969 31.996094 22.722656 32.339844 23.398438 C 32.382812 23.480469 32.472656 23.535156 32.566406 23.53125 C 32.660156 23.527344 32.742188 23.46875 32.777344 23.382812 C 33.285156 22.1875 33.703125 21.035156 34.042969 19.9375 C 34.0625 19.875 34.054688 19.804688 34.019531 19.746094 C 33.984375 19.6875 33.929688 19.644531 33.863281 19.632812 C 32.757812 19.382812 31.5625 19.179688 30.285156 19.027344 C 30.277344 19.027344 30.269531 19.023438 30.261719 19.023438 Z M 25 19.203125 C 26.132812 19.203125 27.222656 19.25 28.273438 19.324219 C 28.863281 20.207031 29.4375 21.121094 29.984375 22.078125 C 30.550781 23.070312 31.054688 24.042969 31.511719 25 C 31.054688 25.957031 30.550781 26.929688 29.984375 27.921875 C 29.4375 28.878906 28.863281 29.792969 28.273438 30.675781 C 27.222656 30.75 26.132812 30.796875 25 30.796875 C 23.867188 30.796875 22.777344 30.75 21.726562 30.675781 C 21.136719 29.792969 20.5625 28.878906 20.015625 27.921875 C 19.449219 26.929688 18.945312 25.957031 18.488281 25 C 18.945312 24.042969 19.449219 23.070312 20.015625 22.078125 C 20.5625 21.121094 21.136719 20.207031 21.726562 19.324219 C 22.777344 19.25 23.867188 19.203125 25 19.203125 Z M 19.261719 19.589844 C 18.949219 20.09375 18.636719 20.59375 18.339844 21.121094 C 18.035156 21.648438 17.757812 22.175781 17.484375 22.703125 C 17.117188 21.792969 16.785156 20.902344 16.515625 20.054688 C 17.375 19.871094 18.300781 19.71875 19.261719 19.589844 Z M 30.738281 19.59375 C 31.699219 19.722656 32.625 19.871094 33.484375 20.058594 C 33.214844 20.902344 32.882812 21.792969 32.515625 22.703125 C 32.238281 22.175781 31.964844 21.648438 31.664062 21.121094 C 31.363281 20.59375 31.050781 20.09375 30.738281 19.59375 Z M 14.769531 19.976562 C 14.75 19.976562 14.730469 19.980469 14.714844 19.984375 C 12.535156 20.585938 10.785156 21.351562 9.558594 22.203125 C 8.335938 23.058594 7.613281 24.011719 7.613281 25 C 7.613281 25.988281 8.335938 26.941406 9.558594 27.796875 C 10.785156 28.648438 12.535156 29.414062 14.714844 30.015625 C 14.839844 30.050781 14.96875 29.976562 15.007812 29.851562 C 15.472656 28.339844 16.082031 26.742188 16.835938 25.101562 C 16.863281 25.035156 16.863281 24.964844 16.835938 24.898438 C 16.082031 23.257812 15.472656 21.660156 15.007812 20.148438 C 14.976562 20.042969 14.878906 19.972656 14.769531 19.976562 Z M 35.214844 19.976562 C 35.113281 19.980469 35.023438 20.046875 34.992188 20.148438 C 34.527344 21.660156 33.917969 23.257812 33.164062 24.898438 C 33.136719 24.964844 33.136719 25.035156 33.164062 25.101562 C 33.917969 26.742188 34.527344 28.339844 34.992188 29.851562 C 35.03125 29.976562 35.160156 30.050781 35.285156 30.015625 C 37.464844 29.414062 39.214844 28.648438 40.441406 27.796875 C 41.664062 26.941406 42.386719 25.988281 42.386719 25 C 42.386719 24.011719 41.664062 23.058594 40.441406 22.203125 C 39.214844 21.351562 37.464844 20.585938 35.285156 19.984375 C 35.261719 19.980469 35.238281 19.976562 35.214844 19.976562 Z M 14.636719 20.523438 C 15.089844 21.960938 15.65625 23.457031 16.355469 25 C 15.65625 26.542969 15.089844 28.039062 14.636719 29.476562 C 12.605469 28.898438 10.953125 28.175781 9.835938 27.398438 C 8.675781 26.59375 8.09375 25.746094 8.09375 25 C 8.09375 24.253906 8.675781 23.40625 9.835938 22.601562 C 10.953125 21.824219 12.605469 21.101562 14.636719 20.523438 Z M 35.363281 20.523438 C 37.394531 21.101562 39.046875 21.824219 40.164062 22.601562 C 41.324219 23.40625 41.90625 24.253906 41.90625 25 C 41.90625 25.746094 41.324219 26.59375 40.164062 27.398438 C 39.046875 28.175781 37.394531 28.898438 35.363281 29.476562 C 34.910156 28.039062 34.34375 26.542969 33.644531 25 C 34.34375 23.457031 34.910156 21.957031 35.363281 20.523438 Z M 25 21.136719 C 22.871094 21.136719 21.136719 22.871094 21.136719 25 C 21.136719 27.128906 22.871094 28.863281 25 28.863281 C 27.128906 28.863281 28.863281 27.128906 28.863281 25 C 28.863281 22.871094 27.128906 21.136719 25 21.136719 Z M 25 22.101562 C 26.605469 22.101562 27.898438 23.394531 27.898438 25 C 27.898438 26.605469 26.605469 27.898438 25 27.898438 C 23.394531 27.898438 22.101562 26.605469 22.101562 25 C 22.101562 23.394531 23.394531 22.101562 25 22.101562 Z M 17.445312 26.46875 C 17.347656 26.46875 17.257812 26.527344 17.222656 26.617188 C 16.714844 27.8125 16.296875 28.964844 15.957031 30.0625 C 15.9375 30.125 15.945312 30.195312 15.980469 30.253906 C 16.015625 30.3125 16.070312 30.355469 16.136719 30.367188 C 17.242188 30.617188 18.4375 30.820312 19.710938 30.972656 C 19.804688 30.984375 19.894531 30.941406 19.945312 30.863281 C 19.996094 30.78125 19.996094 30.683594 19.945312 30.605469 C 19.539062 29.964844 19.140625 29.316406 18.757812 28.640625 C 18.367188 27.957031 18.003906 27.277344 17.660156 26.601562 C 17.617188 26.523438 17.535156 26.472656 17.445312 26.46875 Z M 32.546875 26.46875 C 32.460938 26.472656 32.382812 26.523438 32.339844 26.601562 C 31.996094 27.277344 31.632812 27.957031 31.242188 28.640625 C 30.859375 29.3125 30.460938 29.964844 30.054688 30.605469 C 30.003906 30.683594 30.003906 30.78125 30.054688 30.863281 C 30.101562 30.941406 30.195312 30.984375 30.285156 30.972656 C 31.5625 30.820312 32.753906 30.617188 33.863281 30.367188 C 33.929688 30.355469 33.984375 30.3125 34.019531 30.253906 C 34.054688 30.195312 34.0625 30.125 34.042969 30.0625 C 33.703125 28.964844 33.285156 27.8125 32.777344 26.617188 C 32.738281 26.527344 32.648438 26.46875 32.546875 26.46875 Z M 17.484375 27.300781 C 17.761719 27.824219 18.035156 28.351562 18.335938 28.878906 C 18.636719 29.40625 18.949219 29.90625 19.261719 30.40625 C 18.300781 30.277344 17.375 30.128906 16.515625 29.941406 C 16.785156 29.097656 17.117188 28.207031 17.484375 27.300781 Z M 32.515625 27.300781 C 32.882812 28.207031 33.214844 29.097656 33.484375 29.941406 C 32.625 30.128906 31.699219 30.277344 30.738281 30.40625 C 31.050781 29.90625 31.363281 29.40625 31.664062 28.878906 C 31.964844 28.351562 32.238281 27.824219 32.515625 27.300781 Z M 34.210938 31.292969 C 34.191406 31.292969 34.171875 31.292969 34.152344 31.296875 C 32.632812 31.640625 30.972656 31.898438 29.203125 32.058594 C 29.132812 32.0625 29.066406 32.101562 29.027344 32.160156 C 27.988281 33.65625 26.910156 35.015625 25.828125 36.207031 C 25.738281 36.300781 25.742188 36.449219 25.832031 36.539062 C 27.792969 38.503906 29.714844 39.855469 31.394531 40.308594 C 32.273438 40.542969 33.039062 40.503906 33.644531 40.152344 C 34.496094 39.652344 34.953125 38.550781 35.082031 37.058594 C 35.207031 35.570312 35 33.664062 34.441406 31.472656 C 34.414062 31.367188 34.320312 31.292969 34.210938 31.292969 Z M 15.796875 31.292969 C 15.6875 31.289062 15.585938 31.363281 15.558594 31.472656 C 15 33.664062 14.792969 35.570312 14.917969 37.058594 C 15.046875 38.550781 15.503906 39.652344 16.355469 40.152344 C 16.355469 40.152344 16.359375 40.152344 16.359375 40.152344 C 16.960938 40.503906 17.726562 40.539062 18.605469 40.308594 C 20.285156 39.855469 22.207031 38.5 24.167969 36.539062 C 24.257812 36.449219 24.261719 36.300781 24.171875 36.207031 C 23.089844 35.015625 22.011719 33.65625 20.972656 32.160156 C 20.933594 32.101562 20.867188 32.0625 20.796875 32.058594 C 19.03125 31.898438 17.367188 31.640625 15.84375 31.296875 C 15.832031 31.292969 15.8125 31.292969 15.796875 31.292969 Z M 34.011719 31.804688 C 34.519531 33.863281 34.714844 35.660156 34.601562 37.019531 C 34.480469 38.429688 34.042969 39.359375 33.398438 39.734375 C 32.9375 40.003906 32.316406 40.054688 31.519531 39.839844 C 30.03125 39.441406 28.203125 38.171875 26.335938 36.335938 C 27.363281 35.195312 28.378906 33.925781 29.355469 32.519531 C 31.011719 32.367188 32.566406 32.121094 34.011719 31.804688 Z M 15.984375 31.808594 C 17.433594 32.121094 18.988281 32.367188 20.644531 32.519531 C 21.621094 33.925781 22.636719 35.195312 23.660156 36.335938 C 21.796875 38.175781 19.96875 39.441406 18.480469 39.839844 C 17.683594 40.054688 17.0625 40.003906 16.601562 39.734375 C 15.957031 39.359375 15.519531 38.429688 15.398438 37.019531 C 15.285156 35.660156 15.480469 33.863281 15.984375 31.808594 Z M 22.636719 32.1875 C 22.550781 32.191406 22.46875 32.242188 22.433594 32.324219 C 22.394531 32.40625 22.402344 32.5 22.457031 32.570312 C 23.230469 33.625 24.023438 34.597656 24.820312 35.476562 C 24.867188 35.527344 24.933594 35.554688 25 35.554688 C 25.066406 35.554688 25.132812 35.527344 25.179688 35.476562 C 25.976562 34.597656 26.769531 33.621094 27.542969 32.570312 C 27.597656 32.496094 27.605469 32.394531 27.5625 32.3125 C 27.519531 32.230469 27.429688 32.183594 27.335938 32.1875 C 26.570312 32.222656 25.792969 32.246094 25 32.246094 C 24.207031 32.246094 23.429688 32.222656 22.664062 32.1875 C 22.652344 32.1875 22.644531 32.1875 22.636719 32.1875 Z M 23.167969 32.683594 C 23.773438 32.703125 24.378906 32.726562 25 32.726562 C 25.621094 32.726562 26.226562 32.707031 26.832031 32.683594 C 26.226562 33.480469 25.617188 34.242188 25 34.933594 C 24.386719 34.242188 23.773438 33.480469 23.167969 32.683594 Z M 23.167969 32.683594 "/>
</g>
</svg>
