<?xml version="1.0" encoding="UTF-8"?>
<svg xmlns="http://www.w3.org/2000/svg" xmlns:xlink="http://www.w3.org/1999/xlink" viewBox="0 0 50 50" width="50px" height="50px">
<g id="surface290343170">
<path style=" stroke:none;fill-rule:nonzero;fill:rgb(90.196079%,49.411765%,13.333334%);fill-opacity:1;" d="M 24 2 C 16.832031 2 11 10.292969 11 20.488281 C 11 25.582031 12.484375 30.15625 14.839844 33.492188 C 14.277344 34.226562 14 35.113281 14 36 C 14 36.972656 14.320312 37.957031 15.003906 38.726562 C 15.683594 39.496094 16.75 40 18 40 C 19.25 40 20.316406 39.496094 20.996094 38.726562 C 21.679688 37.957031 22 36.972656 22 36 C 22 35.027344 21.679688 34.042969 20.996094 33.273438 C 20.316406 32.503906 19.25 32 18 32 C 17.417969 32 16.882812 32.117188 16.402344 32.3125 C 14.316406 29.316406 13 25.144531 13 20.488281 C 13 11.394531 17.933594 4 24 4 C 29.417969 4 33.921875 9.910156 34.824219 17.652344 C 35.53125 17.917969 36.234375 18.222656 36.925781 18.558594 C 36.246094 9.265625 30.710938 2 24 2 Z M 22 15 C 20.75 15 19.683594 15.503906 19.003906 16.273438 C 18.320312 17.042969 18 18.027344 18 19 C 18 19.972656 18.320312 20.957031 19.003906 21.726562 C 19.683594 22.496094 20.75 23 22 23 C 23.25 23 24.316406 22.496094 24.996094 21.726562 C 25.425781 21.246094 25.695312 20.675781 25.847656 20.082031 C 29.425781 19.929688 33.445312 20.988281 37.140625 23.203125 C 45.035156 27.933594 49.011719 36.1875 46.003906 41.597656 C 44.933594 43.527344 43.058594 44.898438 40.585938 45.558594 C 37.125 46.488281 32.871094 45.917969 28.8125 44.082031 C 28.226562 44.550781 27.605469 44.996094 26.96875 45.429688 C 30.292969 47.105469 33.8125 47.996094 37.0625 47.996094 C 38.472656 47.996094 39.832031 47.832031 41.101562 47.492188 C 44.109375 46.683594 46.410156 44.980469 47.753906 42.566406 C 51.277344 36.222656 46.980469 26.769531 38.167969 21.488281 C 34.195312 19.101562 29.824219 17.9375 25.886719 18.066406 C 25.746094 17.417969 25.460938 16.792969 24.996094 16.273438 C 24.316406 15.503906 23.25 15 22 15 Z M 22 17 C 22.75 17 23.183594 17.246094 23.503906 17.601562 C 23.820312 17.957031 24 18.472656 24 19 C 24 19.527344 23.820312 20.042969 23.503906 20.398438 C 23.183594 20.753906 22.75 21 22 21 C 21.25 21 20.816406 20.753906 20.496094 20.398438 C 20.179688 20.042969 20 19.527344 20 19 C 20 18.472656 20.179688 17.957031 20.496094 17.601562 C 20.816406 17.246094 21.25 17 22 17 Z M 9.164062 23.332031 C 2.199219 28.773438 -0.898438 36.90625 2.246094 42.566406 C 3.589844 44.980469 5.890625 46.683594 8.898438 47.488281 C 10.167969 47.828125 11.527344 47.996094 12.9375 47.996094 C 16.738281 47.996094 20.910156 46.789062 24.707031 44.511719 C 29.261719 41.78125 32.542969 37.933594 34.210938 33.980469 C 35.367188 33.921875 36.355469 33.449219 36.996094 32.726562 C 37.679688 31.957031 38 30.972656 38 30 C 38 29.027344 37.679688 28.042969 36.996094 27.273438 C 36.316406 26.503906 35.25 26 34 26 C 32.75 26 31.683594 26.503906 31.003906 27.273438 C 30.320312 28.042969 30 29.027344 30 30 C 30 30.972656 30.320312 31.957031 31.003906 32.726562 C 31.335938 33.101562 31.761719 33.40625 32.25 33.628906 C 30.679688 37.039062 27.714844 40.375 23.675781 42.796875 C 18.925781 45.644531 13.597656 46.679688 9.414062 45.558594 C 6.941406 44.898438 5.070312 43.527344 3.996094 41.59375 C 1.453125 37.023438 3.914062 30.429688 9.503906 25.632812 C 9.355469 24.882812 9.242188 24.113281 9.164062 23.332031 Z M 34 28 C 34.75 28 35.183594 28.246094 35.503906 28.601562 C 35.820312 28.957031 36 29.472656 36 30 C 36 30.527344 35.820312 31.042969 35.503906 31.398438 C 35.183594 31.753906 34.75 32 34 32 C 33.25 32 32.816406 31.753906 32.496094 31.398438 C 32.179688 31.042969 32 30.527344 32 30 C 32 29.472656 32.179688 28.957031 32.496094 28.601562 C 32.816406 28.246094 33.25 28 34 28 Z M 18 34 C 18.75 34 19.183594 34.246094 19.503906 34.601562 C 19.820312 34.957031 20 35.472656 20 36 C 20 36.527344 19.820312 37.042969 19.503906 37.398438 C 19.183594 37.753906 18.75 38 18 38 C 17.25 38 16.816406 37.753906 16.496094 37.398438 C 16.179688 37.042969 16 36.527344 16 36 C 16 35.472656 16.179688 34.957031 16.496094 34.601562 C 16.816406 34.246094 17.25 34 18 34 Z M 18 34 "/>
</g>
</svg>
