<?xml version="1.0" encoding="UTF-8"?>
<svg xmlns="http://www.w3.org/2000/svg" xmlns:xlink="http://www.w3.org/1999/xlink" viewBox="0 0 50 50" width="50px" height="50px">
<g id="surface290320675">
<path style=" stroke:none;fill-rule:nonzero;fill:rgb(90.196079%,49.411765%,13.333334%);fill-opacity:1;" d="M 22.851562 5.804688 C 20.625 5.804688 18.273438 6.21875 16.050781 7.011719 C 13.386719 7.957031 8.355469 10.074219 4.554688 13.628906 C 0.695312 17.238281 -0.257812 20.710938 0.136719 22.761719 C 0.878906 26.597656 4.566406 29.226562 7.371094 31.160156 C 5.324219 32.414062 3.097656 34.140625 2.207031 36.109375 C 1.367188 37.96875 1.320312 39.882812 2.074219 41.496094 C 2.640625 42.703125 3.601562 43.601562 4.652344 43.894531 C 5.378906 44.09375 6.128906 44.199219 6.882812 44.199219 C 9.859375 44.199219 12.796875 42.570312 14.550781 39.957031 C 14.816406 39.566406 15.042969 39.15625 15.234375 38.742188 C 15.34375 38.867188 15.453125 38.988281 15.566406 39.097656 C 16.523438 40.003906 17.664062 40.003906 18.039062 40.003906 C 19.195312 40.003906 20.011719 39.5 20.597656 38.878906 C 21.085938 39.203125 21.664062 39.378906 22.285156 39.378906 C 22.359375 39.378906 22.4375 39.378906 22.511719 39.371094 C 23.753906 39.21875 25.09375 38.003906 25.09375 38.003906 C 25.148438 38.050781 25.199219 38.089844 25.253906 38.132812 C 25.785156 38.53125 26.449219 38.726562 27.285156 38.726562 C 27.425781 38.726562 27.566406 38.722656 27.710938 38.710938 C 28.734375 38.640625 29.507812 38.398438 29.992188 38.195312 C 30.480469 38.015625 31.1875 37.699219 31.890625 37.183594 C 32.0625 37.054688 32.226562 36.921875 32.378906 36.785156 C 32.691406 36.972656 33.039062 37.109375 33.421875 37.183594 C 33.609375 37.222656 33.800781 37.242188 34 37.242188 C 34.527344 37.242188 35.097656 37.113281 35.738281 36.851562 C 36.261719 36.667969 37.015625 36.347656 37.765625 35.796875 C 39.507812 34.515625 40.355469 32.992188 40.285156 31.273438 C 40.28125 31.21875 40.28125 31.167969 40.273438 31.113281 C 40.53125 31.085938 40.796875 31.074219 41.070312 31.074219 C 41.410156 31.074219 41.769531 31.09375 42.132812 31.136719 C 44.519531 31.414062 45.03125 32.542969 45.019531 32.914062 C 45.007812 33.011719 44.835938 33.167969 44.675781 33.269531 C 43.667969 33.890625 43.25 34.703125 43.425781 35.675781 C 43.617188 36.730469 44.503906 37.46875 45.578125 37.46875 C 45.785156 37.46875 45.964844 37.441406 46.113281 37.417969 C 47.390625 37.203125 49.828125 35.613281 49.941406 32.761719 C 50.007812 31.105469 49.328125 29.410156 48.082031 28.113281 C 46.515625 26.484375 44.21875 25.585938 41.609375 25.585938 L 41.550781 25.585938 C 40.476562 25.59375 39.429688 25.738281 38.425781 26.027344 L 38.394531 25.800781 C 38.332031 25.371094 38.308594 25.207031 38.359375 24.835938 C 38.402344 24.5 38.609375 23.894531 38.707031 23.605469 C 38.847656 23.195312 38.945312 22.902344 38.910156 22.464844 C 38.84375 21.613281 38.136719 20.167969 35.917969 20.152344 L 35.855469 20.152344 C 33.886719 20.152344 32.671875 20.722656 32.238281 21.855469 C 32.1875 21.996094 32.121094 22.179688 32.054688 22.394531 C 31.597656 21.910156 30.859375 21.53125 29.722656 21.523438 L 29.660156 21.523438 C 29.425781 21.523438 29.203125 21.53125 28.988281 21.546875 C 31.832031 18.914062 33.640625 15.132812 32.71875 11.511719 C 31.820312 7.988281 28.039062 5.804688 22.851562 5.804688 Z M 22.847656 7.792969 C 26.839844 7.792969 30.101562 9.285156 30.792969 12.003906 C 31.808594 15.980469 28.355469 20.734375 23.933594 22.445312 C 21.636719 23.335938 19.570312 23.621094 17.980469 23.621094 C 16.839844 23.621094 15.941406 23.472656 15.382812 23.289062 C 13.859375 22.789062 12.964844 21.785156 12.746094 21.21875 C 12.660156 20.996094 12.511719 20.625 12.746094 20.496094 C 12.785156 20.472656 12.820312 20.457031 12.855469 20.457031 C 12.949219 20.457031 13.054688 20.550781 13.328125 20.855469 C 13.648438 21.207031 14.8125 22.078125 16.964844 22.078125 C 17.269531 22.078125 17.59375 22.0625 17.9375 22.023438 C 25.234375 21.207031 29.625 15.535156 28.238281 12.488281 C 27.726562 11.367188 25.9375 10.570312 23.335938 10.570312 C 20.980469 10.570312 17.957031 11.226562 14.617188 12.890625 C 6.042969 17.164062 5.578125 20.683594 5.503906 22.023438 C 5.304688 25.703125 10.046875 27.640625 12.609375 30.378906 C 12.644531 30.414062 12.679688 30.449219 12.710938 30.488281 C 13.191406 30.222656 13.699219 29.941406 14.195312 29.671875 C 15.488281 28.957031 16.707031 28.292969 17.277344 27.984375 C 18.179688 26.671875 20.015625 25.222656 21.335938 25.222656 C 23.453125 25.222656 22.722656 28.261719 22.722656 28.261719 C 22.722656 28.261719 22.769531 28.121094 22.824219 28.121094 C 22.871094 28.117188 23.019531 27.882812 23.382812 27.882812 C 23.492188 27.882812 23.621094 27.902344 23.769531 27.960938 C 24.445312 28.203125 24.289062 28.675781 24.292969 28.726562 C 24.304688 28.816406 23.503906 31.519531 23.167969 33.253906 C 23.007812 34.078125 23.101562 34.679688 23.148438 34.679688 C 23.214844 34.679688 23.347656 34.46875 23.472656 34.242188 L 23.46875 34.238281 C 23.46875 34.238281 23.5625 34.066406 23.71875 33.761719 C 23.742188 33.71875 23.75 33.695312 23.75 33.695312 L 23.753906 33.695312 C 23.9375 33.332031 24.195312 32.804688 24.496094 32.144531 C 25.082031 30.851562 27.324219 25.859375 27.511719 25.304688 C 27.703125 24.75 27.804688 24.179688 27.894531 23.933594 C 27.988281 23.695312 28.753906 23.511719 29.65625 23.511719 L 29.707031 23.511719 C 30.632812 23.519531 30.726562 23.914062 30.730469 23.996094 C 30.738281 24.078125 30.292969 25.171875 30.191406 25.945312 C 30.085938 26.722656 30.183594 27.109375 30.269531 27.757812 C 30.324219 28.1875 30.589844 28.726562 30.90625 29.335938 C 31.859375 27.769531 33.546875 24.773438 33.710938 23.933594 C 33.820312 23.363281 34 22.8125 34.09375 22.566406 C 34.1875 22.328125 34.953125 22.144531 35.855469 22.144531 L 35.902344 22.144531 C 36.828125 22.152344 36.921875 22.546875 36.929688 22.628906 C 36.9375 22.710938 36.488281 23.804688 36.386719 24.578125 C 36.285156 25.355469 36.382812 25.742188 36.46875 26.390625 C 36.539062 26.945312 36.96875 27.695312 37.398438 28.546875 C 38.5625 27.972656 39.953125 27.585938 41.558594 27.578125 L 41.609375 27.578125 C 45.726562 27.578125 48.050781 30.253906 47.953125 32.6875 C 47.882812 34.609375 46.113281 35.402344 45.785156 35.457031 C 45.707031 35.472656 45.636719 35.480469 45.582031 35.480469 C 45.46875 35.480469 45.40625 35.441406 45.382812 35.316406 C 45.359375 35.1875 45.445312 35.128906 45.726562 34.957031 C 46.003906 34.785156 46.839844 34.210938 46.992188 33.164062 C 47.140625 32.121094 46.355469 29.628906 42.363281 29.160156 C 41.910156 29.109375 41.480469 29.085938 41.074219 29.085938 C 39.808594 29.085938 38.765625 29.320312 37.914062 29.675781 C 38.121094 30.222656 38.277344 30.785156 38.300781 31.355469 C 38.351562 32.609375 37.488281 33.53125 36.589844 34.191406 C 36.066406 34.578125 35.503906 34.835938 35.039062 34.988281 C 34.726562 35.121094 34.328125 35.253906 34.003906 35.253906 C 33.9375 35.253906 33.875 35.25 33.816406 35.238281 C 33.035156 35.082031 32.621094 34.390625 33.152344 32.863281 C 33.4375 32.039062 34.261719 30.78125 35.59375 29.699219 C 35.289062 29.074219 34.953125 28.441406 34.78125 27.855469 C 34.441406 26.703125 34.335938 26.003906 34.335938 26.003906 C 34.335938 26.003906 33.234375 28.28125 31.820312 30.351562 C 31.738281 30.472656 31.65625 30.589844 31.578125 30.703125 C 31.855469 31.351562 32.074219 32.035156 32.105469 32.722656 C 32.15625 33.976562 31.613281 34.921875 30.714844 35.582031 C 30.226562 35.941406 29.710938 36.1875 29.265625 36.34375 C 28.976562 36.46875 28.398438 36.671875 27.578125 36.726562 C 27.476562 36.734375 27.378906 36.738281 27.285156 36.738281 C 26.945312 36.738281 26.640625 36.691406 26.449219 36.546875 C 26.117188 36.296875 26.074219 35.988281 26.25 35.5625 C 26.394531 35.203125 27.484375 33.957031 28.402344 32.863281 C 28.652344 32.5625 28.894531 32.257812 29.109375 31.972656 C 29.105469 31.964844 29.105469 31.960938 29.105469 31.960938 C 29.105469 31.960938 29.269531 31.746094 29.542969 31.371094 C 29.207031 30.652344 28.78125 29.902344 28.582031 29.222656 C 28.242188 28.070312 28.140625 27.371094 28.140625 27.371094 C 28.140625 27.371094 27.027344 30.226562 25.867188 32.503906 C 24.96875 34.265625 24.371094 35.335938 24.101562 35.804688 C 24.097656 35.816406 24.097656 35.820312 24.097656 35.820312 C 24.097656 35.820312 24.054688 35.890625 23.988281 35.996094 C 23.953125 36.054688 23.9375 36.085938 23.9375 36.085938 C 23.9375 36.085938 23.933594 36.082031 23.933594 36.078125 C 23.632812 36.523438 22.957031 37.390625 22.285156 37.390625 C 20.441406 37.390625 21.121094 33.648438 21.121094 33.648438 C 21.121094 33.648438 20.582031 35.035156 19.972656 36.226562 C 19.476562 37.195312 19.027344 38.015625 18.042969 38.015625 C 17.757812 38.015625 17.308594 38.007812 16.933594 37.652344 C 16.085938 36.851562 15.4375 34.808594 15.566406 33.226562 C 15.675781 31.882812 15.882812 30.953125 16.164062 30.175781 C 15.65625 30.453125 15.074219 30.777344 14.480469 31.125 C 14.171875 31.304688 13.867188 31.488281 13.566406 31.664062 C 13.574219 31.683594 13.585938 31.703125 13.59375 31.71875 C 14.351562 33.183594 14.550781 36.390625 12.902344 38.851562 C 11.5625 40.847656 9.289062 42.210938 6.882812 42.210938 C 6.320312 42.210938 5.75 42.136719 5.183594 41.980469 C 4.21875 41.710938 2.757812 39.714844 4.015625 36.929688 C 5.125 34.476562 9.5625 32.152344 10.734375 31.574219 C 10.832031 31.519531 10.941406 31.460938 11.054688 31.398438 C 8.722656 29.359375 2.898438 26.609375 2.085938 22.382812 C 1.855469 21.195312 2.410156 18.347656 5.90625 15.078125 C 8.84375 12.332031 12.933594 10.226562 16.710938 8.882812 C 18.789062 8.144531 20.90625 7.792969 22.851562 7.792969 Z M 23.339844 12.550781 C 25.472656 12.550781 26.339844 13.171875 26.441406 13.324219 C 26.582031 13.632812 26.550781 14.328125 26.007812 15.277344 C 24.851562 17.320312 21.839844 19.585938 17.71875 20.046875 C 17.460938 20.074219 17.210938 20.089844 16.96875 20.089844 C 15.429688 20.089844 14.789062 19.503906 14.78125 19.496094 C 14.425781 19.101562 13.851562 18.46875 12.859375 18.464844 C 12.488281 18.464844 12.128906 18.5625 11.785156 18.753906 C 11.496094 18.914062 10.085938 19.824219 10.890625 21.917969 C 11.328125 23.054688 12.691406 24.496094 14.765625 25.175781 C 15.320312 25.359375 16 25.484375 16.742188 25.550781 C 16.441406 25.851562 16.175781 26.15625 15.945312 26.441406 C 15.300781 26.796875 14.296875 27.347656 13.242188 27.925781 L 13.042969 28.03125 C 12.398438 27.464844 11.710938 26.9375 11.035156 26.417969 C 8.84375 24.734375 7.414062 23.523438 7.488281 22.128906 C 7.652344 19.179688 11.9375 16.441406 15.503906 14.664062 C 18.238281 13.304688 21.019531 12.550781 23.339844 12.550781 Z M 25.886719 23.738281 C 25.871094 23.804688 25.855469 23.871094 25.835938 23.941406 C 25.78125 24.167969 25.714844 24.429688 25.636719 24.652344 C 25.574219 24.835938 25.296875 25.476562 24.929688 26.304688 C 24.875 26.273438 24.816406 26.246094 24.757812 26.214844 C 24.65625 25.636719 24.449219 25.035156 24.054688 24.519531 C 24.25 24.449219 24.449219 24.371094 24.652344 24.292969 C 25.066406 24.132812 25.480469 23.949219 25.886719 23.738281 Z M 21.292969 27.019531 C 20.949219 27.019531 20.390625 27.316406 19.871094 27.898438 C 19.421875 28.402344 18.660156 29.695312 18.300781 30.777344 C 17.59375 32.925781 17.898438 35.109375 18.402344 35.242188 C 18.417969 35.246094 18.433594 35.246094 18.449219 35.246094 C 19.039062 35.246094 19.964844 32.492188 20.414062 31.398438 C 20.703125 30.695312 21.824219 27.570312 21.582031 27.152344 C 21.527344 27.0625 21.425781 27.019531 21.292969 27.019531 Z M 36.230469 30.558594 C 35.484375 31.21875 35.054688 31.910156 34.867188 32.316406 C 34.386719 33.363281 34.363281 33.695312 34.507812 33.800781 C 35.207031 33.550781 36.355469 32.945312 36.367188 31.332031 C 36.371094 31.089844 36.316406 30.828125 36.230469 30.558594 Z M 12.148438 32.339844 C 12.078125 32.378906 12.007812 32.421875 11.945312 32.460938 L 11.945312 32.464844 C 11.945312 32.464844 11.914062 32.480469 11.855469 32.515625 C 11.511719 32.71875 11.226562 32.890625 11.035156 33.007812 C 10.1875 33.535156 8.910156 34.394531 7.921875 35.328125 C 6.300781 36.859375 5.957031 38.984375 6.816406 39.480469 C 6.996094 39.585938 7.238281 39.640625 7.515625 39.640625 C 8.4375 39.640625 9.761719 39.058594 10.777344 37.953125 C 12.164062 36.4375 12.738281 34.515625 12.148438 32.339844 Z M 30.167969 32.589844 C 29.878906 32.964844 29.613281 33.300781 29.386719 33.585938 C 28.996094 34.074219 27.996094 35.144531 27.996094 35.144531 C 27.996094 35.144531 27.855469 35.277344 27.917969 35.316406 C 27.9375 35.328125 27.964844 35.332031 27.992188 35.332031 C 28.085938 35.332031 28.226562 35.273438 28.375 35.199219 C 28.929688 34.847656 30.167969 33.984375 30.171875 32.699219 C 30.171875 32.664062 30.171875 32.625 30.167969 32.589844 Z M 30.167969 32.589844 "/>
</g>
</svg>
