<svg width="110" height="110" viewBox="0 0 110 110" fill="none" xmlns="http://www.w3.org/2000/svg">
<circle cx="55" cy="55" r="54.5" stroke="#E0E0E0"/>
<circle cx="55" cy="55" r="44.5" stroke="#4985FF"/>
<g clip-path="url(#clip0_112251_4)">
<path d="M74.3326 35H44.3327C43.9645 35 43.666 35.2985 43.666 35.6667V45.6666H44.9993V36.3333H73.6659V72.9999C73.6724 73.3505 73.4019 73.6442 73.0519 73.6666C72.9946 73.6666 72.9373 73.6619 72.8799 73.6606C72.7619 73.6573 72.6439 73.6546 72.5279 73.6426C72.5179 73.6426 72.5086 73.6426 72.4986 73.6386C70.3213 73.4006 68.6014 71.6823 68.3613 69.5053C68.3613 69.4959 68.358 69.4859 68.3566 69.4766C68.3405 69.3182 68.3325 69.1591 68.3326 68.9999V67.6666C68.3326 67.2984 68.0341 66.9999 67.666 66.9999H44.9993V55H43.666V66.9999H38.3327C37.9645 66.9999 37.666 67.2984 37.666 67.6666V68.9999C37.6697 72.3121 40.3538 74.9963 43.666 74.9999H73.0659C74.1478 74.9716 75.0076 74.0821 74.9993 72.9999V35.6667C74.9993 35.2985 74.7008 35 74.3326 35ZM43.666 73.6666C41.0899 73.6637 39.0023 71.576 38.9993 68.9999V68.3333H66.9993V68.9999C67.0002 69.2198 67.0129 69.4394 67.0373 69.6579C67.0433 69.7159 67.0546 69.7719 67.0626 69.8293C67.0846 69.9906 67.1113 70.1513 67.1466 70.3093C67.1586 70.3646 67.174 70.4193 67.188 70.4746C67.2286 70.6353 67.2746 70.7933 67.328 70.9493C67.3433 70.9939 67.3593 71.0379 67.376 71.0826C67.4366 71.2479 67.5053 71.4093 67.5806 71.5686C67.5966 71.6013 67.6113 71.6353 67.6273 71.6653C67.7109 71.8342 67.8026 71.9983 67.9026 72.1579C67.916 72.1793 67.928 72.2013 67.9413 72.2246C68.05 72.3948 68.1673 72.5595 68.2926 72.7179L68.314 72.7466C68.4595 72.9293 68.6153 73.1036 68.7806 73.2686C68.9242 73.4108 69.073 73.5442 69.2273 73.6686L43.666 73.6666Z" fill="#4985FF"/>
<path d="M57 53.6667C57.1768 53.6667 57.3463 53.5963 57.4713 53.4713L60.1379 50.8047C60.3982 50.5443 60.3982 50.1223 60.1379 49.862L57.4713 47.1953C57.3463 47.0703 57.1768 47 57 47H38.3333C36.4924 47 35 48.4924 35 50.3333C35 52.1742 36.4924 53.6667 38.3333 53.6667H57ZM56.828 48.4373L58.7239 50.3333L56.828 52.2293L56.354 50.3333L56.828 48.4373ZM40.3333 48.3333H55.48L55.1466 49.6667H41.6667V51H55.1466L55.48 52.3333H40.3333V48.3333ZM36.3333 50.3333C36.3333 49.2287 37.2287 48.3333 38.3333 48.3333H39V52.3333H38.3333C37.2287 52.3333 36.3333 51.4379 36.3333 50.3333Z" fill="#4985FF"/>
<path d="M50.3325 63.6666H70.3325C70.7007 63.6666 70.9992 63.3681 70.9992 62.9999V43C70.9991 42.6318 70.7006 42.3334 70.3323 42.3335C70.1556 42.3335 69.9862 42.4037 69.8612 42.5287L49.8612 62.5286C49.6009 62.789 49.601 63.2111 49.8614 63.4714C49.9864 63.5964 50.1558 63.6666 50.3325 63.6666ZM69.6658 44.6093V46.3333H68.3325V47.6666H69.6658V49H68.3325V50.3333H69.6658V51.6666H68.3325V53H69.6658V54.3333H68.3325V55.6666H69.6658V57H68.3325V58.3333H69.6658V59.6666H68.3325V60.9999H69.6658V62.3333H68.3325V60.9999H66.9992V62.3333H65.6658V60.9999H64.3325V62.3333H62.9992V60.9999H61.6659V62.3333H60.3325V60.9999H58.9992V62.3333H57.6659V60.9999H56.3325V62.3333H54.9992V60.9999H53.6659V62.3333H51.9419L69.6658 44.6093Z" fill="#4985FF"/>
<path d="M59.9907 59.6667H66.3341C66.7022 59.6667 67.0007 59.3682 67.0007 59V52.6567C67.0007 52.2886 66.7022 51.9902 66.3339 51.9902C66.1572 51.9902 65.9877 52.0605 65.8627 52.1854L59.5194 58.5287C59.2591 58.7891 59.2592 59.2112 59.5196 59.4715C59.6446 59.5965 59.814 59.6667 59.9907 59.6667ZM65.6674 54.2667V58.3334H61.6007L65.6674 54.2667Z" fill="#4985FF"/>
<path d="M65.6673 39H52.334V40.3333H65.6673V39Z" fill="#4985FF"/>
<path d="M67.6673 41.6665H50.334V42.9998H67.6673V41.6665Z" fill="#4985FF"/>
<path d="M50.334 55.6665H46.334V56.9998H50.334V55.6665Z" fill="#4985FF"/>
<path d="M49.0006 58.3335H46.334V59.6668H49.0006V58.3335Z" fill="#4985FF"/>
</g>
<defs>
<clipPath id="clip0_112251_4">
<rect width="40" height="40" fill="white" transform="translate(35 35)"/>
</clipPath>
</defs>
</svg>
