<?xml version="1.0" ?><svg viewBox="0 0 32 32" xmlns="http://www.w3.org/2000/svg"><g data-name="Layer 10" id="Layer_10"><path fill="goldenrod" d="M28,3.5H4A2.5,2.5,0,0,0,1.5,6V26A2.5,2.5,0,0,0,4,28.5H28A2.5,2.5,0,0,0,30.5,26V6A2.5,2.5,0,0,0,28,3.5ZM29.5,26A1.5,1.5,0,0,1,28,27.5H4A1.5,1.5,0,0,1,2.5,26V8.5h27ZM2.5,7.5V6A1.5,1.5,0,0,1,4,4.5H28A1.5,1.5,0,0,1,29.5,6V7.5ZM27.5,6a.5.5,0,1,1-.5-.5A.5.5,0,0,1,27.5,6ZM26,6a.5.5,0,1,1-.5-.5A.5.5,0,0,1,26,6ZM24.5,6a.5.5,0,1,1-.5-.5A.5.5,0,0,1,24.5,6ZM5,14.5H15a.5.5,0,0,0,.5-.5V10a.5.5,0,0,0-.5-.5H5a.5.5,0,0,0-.5.5v4A.5.5,0,0,0,5,14.5Zm.5-4h9v3h-9ZM5,20.5H15a.5.5,0,0,0,.5-.5V16a.5.5,0,0,0-.5-.5H5a.5.5,0,0,0-.5.5v4A.5.5,0,0,0,5,20.5Zm.5-4h9v3h-9ZM5,26.5H15a.5.5,0,0,0,.5-.5V22a.5.5,0,0,0-.5-.5H5a.5.5,0,0,0-.5.5v4A.5.5,0,0,0,5,26.5Zm.5-4h9v3h-9ZM16.5,11a.5.5,0,0,1,.5-.5H27a.5.5,0,0,1,0,1H17A.5.5,0,0,1,16.5,11Zm0,2a.5.5,0,0,1,.5-.5H27a.5.5,0,0,1,0,1H17A.5.5,0,0,1,16.5,13Zm0,4a.5.5,0,0,1,.5-.5H27a.5.5,0,0,1,0,1H17A.5.5,0,0,1,16.5,17Zm0,2a.5.5,0,0,1,.5-.5H27a.5.5,0,0,1,0,1H17A.5.5,0,0,1,16.5,19Zm0,4a.5.5,0,0,1,.5-.5H27a.5.5,0,0,1,0,1H17A.5.5,0,0,1,16.5,23Zm0,2a.5.5,0,0,1,.5-.5H27a.5.5,0,0,1,0,1H17A.5.5,0,0,1,16.5,25Z"/></g></svg>